<?xml version="1.0" encoding="utf-8"?>
<!-- Generator: Adobe Illustrator 16.0.0, SVG Export Plug-In . SVG Version: 6.00 Build 0)  -->
<!DOCTYPE svg PUBLIC "-//W3C//DTD SVG 1.1//EN" "http://www.w3.org/Graphics/SVG/1.1/DTD/svg11.dtd">
<svg version="1.1" id="Layer_1" xmlns="http://www.w3.org/2000/svg" xmlns:xlink="http://www.w3.org/1999/xlink" x="0px" y="0px"
	 width="1358.9px" height="955.5px" viewBox="0 0 1358.9 955.5" style="enable-background:new 0 0 1358.9 955.5;"
	 xml:space="preserve">
<path style="fill-rule:evenodd;clip-rule:evenodd;fill:#353535;stroke:#F7F7F7;stroke-width:2;stroke-miterlimit:10;" d="
	M410.8,541.5c0.6,6.9-2.5,12.1-7.8,16.2c-1.8,1.4-3.5,3.1-5.2,4.6c-4.8,4.4-4.8,4.7,1.8,6.4c11.6,3.1,18.1,11.1,21.7,22
	c3.5,10.7-2.1,18.7-8.3,26.2c-8.6,10.4-20,17.4-30.8,25.1c-7.5,5.4-14.8,11.2-20.5,18.7c-4.5,5.9-8,6.4-13.3,2.3
	c-5-3.9-5.5-8.8-1.2-14.2c0.8-1.1,1.9-1.9,1.7-3.4c-1.8-12.8,1.7-25.5,1.2-38.2c-0.5-13.8-1.2-27.6-2.4-41.3
	c-1.4-16.1-3.3-32.1-4.9-48.2c-0.4-3.6-2.2-7-1.9-10.7c0.5-6.4,3.7-9.2,9.7-7.5c12.6,3.7,25.8,4.7,38.5,7.7c8.5,2,14.3,5.6,16.6,14
	C407.5,528,411.1,534.3,410.8,541.5z M364.1,597.4c-0.1,0-0.3,0-0.4,0c1.1,9.6,2.3,19.1,3.3,28.7c0.4,3.4,1.3,4.5,4.5,1.9
	c3.7-3,7.8-5.5,11.9-8.2c7.5-5,15-9.9,19.7-17.9c2-3.4,3.7-6.4,1.4-10.6c-4.1-7.6-10.8-10.9-19.7-10.1c-4.9,0.4-9.1,1.2-12.1,5.7
	c-1.2,1.8-3.4,3.7-5.9,3.2c-3.4-0.6-3.2,1.1-3,3.3C364,594.8,364,596.1,364.1,597.4z M365.8,517.3c-8.7-0.7-9-0.7-8.4,5.9
	c1.1,14.2,2.6,28.4,3.9,42.6c0.3,3.2,1.6,3,3.9,1.4c8.6-6.2,16.4-13.4,24.3-20.5c7.9-7.2,4.9-21.4-5.2-25.5
	C377.7,518.6,370.7,518.2,365.8,517.3z"/>
<path style="fill-rule:evenodd;clip-rule:evenodd;fill:#353535;stroke:#F7F7F7;stroke-width:2;stroke-miterlimit:10;" d="
	M1236,806.8c5.2-0.4,8.6-3.6,11.7-6c11.8-9,22-0.5,24.6,11.8c1.8,8.4,1,16.9,1.8,25.4c1.2,12.8,2.5,25.5,6.6,37.7
	c4,12.1,12.4,18.1,25,18.1c2.8,0,5.6-0.6,8.5-0.5c3.7,0.1,7.5,0.6,8.9,4.9c1,3.1-2.1,7.7-5.9,9.3c-7.3,2.9-14.8,1.7-22.1,0.2
	c-20-4.1-29.1-18.4-32.9-36.3c-3.5-16.7-3.9-33.6-4.6-50.6c0-1.2-0.1-2.3-0.3-3.5c-0.7-3-2-4.3-5.2-2.4
	c-21,12.4-33.3,29.8-31.2,55.2c0.4,4.8-1,7.8-5.9,9.4c-4.1,1.3-6.8,0.3-9-3c-1.8-2.7-0.7-5.8-1-8.7c-0.3-3.2,1.5-7.6-1.3-9.4
	c-1.9-1.2-5.1,2.3-7.6,3.7c-13.8,7.7-25.5,4.5-33.1-9.3c-3.1-5.6-3.1-5.5-8.2-1.8c-4.4,3.2-8.5,6.9-13.5,9.3
	c-13.8,6.5-18.2,5.5-30.4-4.1c-2.5-2-4.2-4.6-5.7-7.5c-1.5-2.9-3.5-3.7-6.1-1c-4.8,4.9-10.1,9.1-15.6,13.1c-2.6,1.9-3.7,4.2-2.9,7.7
	c2.8,11.8,3.4,24,4.2,36.1c0.7,9.8-1,19.5-6.3,28.2c-4.6,7.5-19.3,11.5-27.3,7.4c-21-10.6-21.3-26.7-13.8-44.1
	c5.4-12.3,12.7-23.7,22.1-33.5c3-3.1,2.8-13.6-0.2-16.9c-1.4-1.6-2.7-0.9-4.4-0.2c-3.5,1.4-6.7,3.4-10.7,3.8
	c-9.1,0.8-15-4.1-20.3-10.5c-1-1.2-1.5-3-3.2-3.7c-4.8,7-6.5,8-11.1,5.9c-3.5-1.6-5.7-4.6-4.2-8.4c5.1-13.1,9.5-26.7,21.7-35.5
	c1.3-1,2.7-2.1,3.5-3.5c5.1-8,12.7-7.1,19.9-5.1c7.4,2.1,13,7.2,14.6,15c1.1,5.6,2,11.4,3.2,16.9c1.8,8.3,3.1,17,6.8,24.9
	c0.7,1.6,1.5,1.9,3,0.9c7.4-4.9,13.8-11,19.1-18c2.4-3.2,0.9-7.4,1.9-11.2c1.1-3.8,1.9-7.7,3-11.6c2.2-7.4,8.2-10.8,14.6-13
	c7.6-2.5,14.4,6.9,11.9,15.8c-2.2,7.8-6.5,14.6-11.9,20.5c-2.8,3-2.8,5.8-1.6,9c1.2,3.3,3,6.3,5.4,8.9c5,5.4,7.7,6,13.9,2.3
	c7.9-4.6,14.4-10.7,19.3-18.4c0.8-1.3,1.5-2.5,1.6-4.1c1.1-15.9,2.3-31.8,3.6-47.7c0.3-3.2-2-3.1-3.8-3.5
	c-7.1-1.5-14.6-1.4-21.4-4.3c-2.7-1.1-5.1-2.2-5.7-5.6c-1.2-6.8,6.1-8.8,10.9-6.7c6.2,2.7,12.6,2.5,18.8,4.2c2.8,0.8,4-0.4,4.6-3.5
	c2.7-16.2,5.1-32.5,11.9-47.7c2.1-4.8,5.5-8.7,8.1-13.1c2.2-3.6,5.9-1.6,8.6-0.8c3.3,1,5.3,3.5,5.2,7.5c-0.3,12.3-2.4,24.5-3.4,36.7
	c-0.6,7.5-0.7,15-2,22.4c-0.4,2.3,0.5,3.3,2.7,3.7c4.1,0.9,8,2.2,12.1,3.1c5.1,1.1,7.9,4.6,7,9.1c-0.7,3.5-5.6,5.7-10.2,4.4
	c-3.5-1-7-2.1-10.5-3.3c-3-1.1-4.8-0.4-5.4,2.8c-2.2,10.9-6,21.4-9.1,32.1c-1.1,3.9-2.8,7.5-4.4,11.1c-2.5,5.5,2.1,20.6,7.2,23.8
	c1.8,1.1,3.6,1,5.2,0.1c6.8-3.9,12.9-8.7,18.7-14.1c2.5-2.3,2.5-5.5,2.8-8.3c1.4-13.1,5.2-25.7,7.1-38.7c2.9-21,8.8-41.3,15.1-61.4
	c1.6-5,4.6-9.2,6.9-13.8c1-2,2.9-3.9,5.7-2.9c3.7,1.3,8,2,8.4,7.2c0.2,2.8,0.4,5.7,0.2,8.5c-1.8,19-3.3,38-8.9,56.4
	C1239.5,791.9,1237.9,799.2,1236,806.8z M1070.3,902.3c-0.6-6-1.3-14-2.1-21.9c-0.1-1.1-0.2-2.5-1.6-2.8c-1.2-0.3-1.8,0.8-2.3,1.5
	c-7.6,10.1-15.1,20.3-17.4,33.1c-1.2,6.6,0.4,12.1,6,16.2c4.4,3.2,8.8,2.7,11.9-1.8C1069.4,919.9,1069.6,912,1070.3,902.3z
	 M1033.2,821.6c0.2,4.8,1.9,9.1,5.8,12.1c1.3,1.1,2.8,2.4,4.9,1.9c8.2-1.8,12.3-9.6,9.1-17.4c-0.4-0.9-0.8-1.8-1.1-2.8
	c-1.3-4-2.9-8.6-7.6-8.8c-5.3-0.2-7.9,4-9.7,8.7C1033.9,817.4,1033.3,819.4,1033.2,821.6z"/>
<path style="fill-rule:evenodd;clip-rule:evenodd;fill:#353535;stroke:#F7F7F7;stroke-width:2;stroke-miterlimit:10;" d="M748.1,301
	c0.3-17.2,0-33,2-48.8c0.3-2.5,0.7-4.9,1.4-7.3c1.4-4.9,4.5-7.2,8.6-6.3c4.2,0.8,7.4,5.1,6.8,9.6c-0.9,7.3-2.3,14.5-2.4,21.8
	c-0.7,31.3-0.5,62.6,2.2,93.8c0.2,2,0.4,4,1,5.9c1.1,3.7,2,7.9-1.2,10.3c-3.3,2.5-7.7,2.7-11.7,0.3c-3.3-2-6.5-4.2-10.1-5.8
	c-3.3-1.5-4.8-5.3-5.9-8.9c-5.7-18-13.8-34.9-22-51.8c-5.2-10.6-10.7-21-16.1-31.5c-0.6-1.3-1.1-3.4-2.9-3c-1.8,0.4-1.4,2.4-1.3,3.9
	c2.1,19.4,1.2,38.9,2.3,58.3c0.6,10.8,2.2,21.5,3.9,32.1c0.2,1,0.4,2,0.5,3c0.9,6-0.4,9.3-4.3,9.6c-5.5,0.5-10.4-0.5-11.8-6.5
	c-1.5-6.1-2.6-12.4-3.5-18.6c-2.3-15.2-2.2-30.5-2.4-45.9c-0.2-16-0.7-32-2.4-47.8c-0.6-5.9-0.2-10.6,6.1-13.1
	c1.1-0.4,2.1-1.6,2.9-2.6c4.3-5.3,11.2-5,14.5,1.1c8.6,15.8,17.4,31.4,25.5,47.4c5.9,11.5,11.8,23.1,16.9,35c0.4,1,0.8,2.6,2.3,2.1
	c1.3-0.4,0.9-2,0.9-3.1C748.1,322.6,748.1,311.1,748.1,301z"/>
<path style="fill-rule:evenodd;clip-rule:evenodd;fill:#353535;stroke:#F7F7F7;stroke-width:2;stroke-miterlimit:10;" d="
	M1119.6,260.9c-2.7,4.4-4,8.5-5.3,12.6c-4.9,15.3-12,29.9-15.6,45.7c-0.4,1.6-1,3.2-1.2,4.8c-0.5,3.9-2.2,6.8-6.4,7
	c-4.2,0.2-7.4-1.6-8.8-5.9c-2.2-6.7-3-13.6-4.2-20.5c-1.8-11.2-3.2-22.4-3.9-33.7c-0.1-1.1,0-2.4-1.6-3.1
	c-4.5,5.5-6.1,12.4-8.4,18.8c-6.4,18.4-13.4,36.5-20.2,54.8c-2.1,5.7-3.4,11.8-5.4,17.6c-1.9,5.5-4.5,7.1-8.7,5.9
	c-3-0.9-6.2-7.4-5.1-10.8c3.9-12,6.7-24.4,11.5-36.1c6.2-15.2,11.4-30.9,16.8-46.4c4.4-12.4,10.5-24.1,15.9-36
	c1.2-2.7,1.3-5.8,5.4-7c7.4-2.1,11.4,2.5,11.9,8.9c1.2,16.1,2.6,32.2,3.9,48.2c0.1,0.8,0.4,1.5,0.6,2.3c2.7-1,2.7-3.2,3.3-4.9
	c6.3-18.2,13.1-36.3,21-53.9c2-4.4,10.2-4.8,13.8-0.7c1.6,1.8,2.6,3.9,2.8,6.3c1.9,20.2,6.6,40,9.9,60c2.6,15.4,4.9,30.9,7,46.3
	c0.3,2.2,1.2,4.1,1.7,6.2c1.3,4.9-0.7,8.8-4.9,9.9c-4.9,1.3-10.6-1.5-11.4-6.2c-1.1-5.9-1.4-11.9-2.4-17.8
	c-4-23.4-6.2-47.2-11.3-70.5C1120.4,262.5,1120.1,262.1,1119.6,260.9z"/>
<path style="fill-rule:evenodd;clip-rule:evenodd;fill:#353535;stroke:#F7F7F7;stroke-width:2;stroke-miterlimit:10;" d="
	M150.4,548.1c0.2-4.7-0.9-9.3-1.4-13.9c-0.5-4.2,0.4-7.6,5.3-8.6c4.4-1,9.4,1,10.9,4.7c2.7,7.3,2.8,15.2,5.2,22.7
	c4.6,14.5,10,28.5,17.8,41.6c0.6,1,0.7,3,2.5,2.5c1.4-0.4,0.8-2,1-3.1c5.9-30,9.5-60.4,15.8-90.3c1.4-6.6,3.7-8.8,9.4-7.7
	c5,0.9,8.9,6.8,7.2,11.8c-3.1,9.2-5,18.7-6.6,28.1c-3.9,22.2-8.3,44.4-11.3,66.8c-0.7,4.9-1.9,9.8-3.2,14.6
	c-0.9,3.3-2.2,6.4-6.3,6.8c-4.4,0.4-7.7-1.5-10.1-4.9c-7.4-10.6-13.5-22-19.3-33.6c-0.4-0.8-0.4-2.2-1.8-2c-1.3,0.1-1.1,1.4-1.4,2.3
	c-1.4,4-1.5,8.3-1.5,12.3c0,8.7-2.9,16.2-7.1,23.5c-1.6,2.7-3,5.6-4,8.6c-1.6,5-5.4,5.9-9.8,5.8c-3.9-0.1-9.3-4-9.3-7.6
	c0-7.8-3.9-14.1-6.9-20.6c-5.4-11.6-9.1-23.8-14.1-35.6c-6.2-14.7-11.9-29.5-17.9-44.3c-2.5-6.3-5-12.6-8.1-18.7
	c-1.5-2.9-5.4-7.2,0.1-10.2c4.8-2.6,10.7-0.3,12.8,4.8c3.5,8.2,6.5,16.7,10,24.9c10.6,24.7,20.1,49.9,30.1,74.9
	c0.9,2.1,1.7,5.8,4,5.6c2.5-0.2,2.7-4,3-6.3c1.1-7.6,2-15.2,2.6-22.8C148.8,569.7,149.6,558.9,150.4,548.1z"/>
<path style="fill-rule:evenodd;clip-rule:evenodd;fill:#353535;stroke:#F7F7F7;stroke-width:2;stroke-miterlimit:10;" d="M229.5,79
	c-3.3,3.7-4.4,8-5.8,12.2c-5.8,18.2-11.4,36.5-17.2,54.7c-1.1,3.5-2.3,6.9-3.8,10.3c-1.7,3.9-6.3,5.8-9.9,4.3
	c-3.8-1.6-6.3-6.4-5-10.2c11-31.9,19.2-64.7,30.4-96.5c1.5-4.2,2.7-8.6,4.1-12.8c1.1-3.4,3.2-5.8,7.1-5.9c4.2-0.1,7.8,1.1,9.2,5.2
	c2.6,7.6,3.5,15.5,4.7,23.4c0.8,5,1.5,10.1,2.3,15.1c2.1,0.2,2.2-1.3,2.6-2.2c5.2-13.6,13.8-25,24.1-35.1c5.7-5.6,12.6-3.9,15.9,3.7
	c5.1,11.7,7.7,24.1,9.1,36.6c1.3,12,3,24.1,1.9,36.3c-1.1,12.9,3.9,24.9,6,37.3c0.3,1.8,0.7,3.6,1,5.4c1.1,5.5-0.6,9.1-4.6,9.9
	c-6,1.1-10.9-1.6-11.3-7.3c-1.1-12.6-6.2-24.6-6.6-37.3c-0.3-10.3,0.1-20.6-0.5-30.9c-0.6-9.8-0.9-19.6-3.6-29.1
	c-0.4-1.5-0.1-3.7-2-4.2c-1.8-0.4-3,1.3-3.9,2.6c-4.9,7.3-9.5,14.8-11.8,23.5c-2.6,10.1-5.3,20.3-8.5,30.2
	c-2.3,7.1-7.4,8.5-13.6,4.8c-2.7-1.6-3.1-4-3.3-6.7C235.5,103.6,231.9,91.5,229.5,79z"/>
<path style="fill-rule:evenodd;clip-rule:evenodd;fill:#353535;stroke:#F7F7F7;stroke-width:2;stroke-miterlimit:10;" d="
	M1194.9,542.5c0.9-12.6,0.4-25.3,1.8-37.9c0.5-4.4-0.7-6.1-5.3-6.3c-7.5-0.5-9.6-3.1-9.4-10.5c0.2-5.4,3.6-8.6,9.1-8.1
	c16.5,1.4,32.8-1.2,49.2-2.1c15.9-0.8,31.6-3.2,47.6-2.9c5.3,0.1,10.9-0.3,16.3-1.8c7.5-2,14.4,2.6,14.3,9.3c0,4.8-3,8.2-8,8.4
	c-6.3,0.2-12.6-0.3-18.9-0.3c-19.3,0.2-38.5,2.3-57.8,3.9c-5,0.4-9.9,0.8-14.9,1.2c-2.9,0.2-4.3,1.6-4.7,4.7
	c-1.4,10.6-1.5,21.2-1.8,31.9c-0.1,3.1,1.2,4,4.1,4.1c16.7,0.8,33.2-1.3,49.8-2.2c8.1-0.4,12.4,1.8,13.5,8.8c0.9,5.4-1.8,9-7.3,8.7
	c-16.5-1-32.8,2.8-49.3,1.9c-1.1-0.1-2.3,0.2-3.5,0.4c-7.5,1.3-7.4,1.3-7.5,8.8c-0.1,5-0.4,10-0.8,14.9c-0.2,3.2,0.8,4.4,4.2,4.2
	c10.8-0.4,21.6,0,32.4,0.8c4.8,0.4,9.5,1.3,14.3,1.9c8.3,1,12.3,9.8,7.9,15.7c-3,4-7,3.1-10.4,1.9c-13.4-4.5-27.1-4.4-40.9-4
	c-5.4,0.2-10.4,2.1-15.7,2.7c-7,0.8-11-2.4-10.7-9.4c0.4-9.8,2.4-19.4,2.4-29.2C1194.8,555.5,1194.9,549,1194.9,542.5z"/>
<path style="fill-rule:evenodd;clip-rule:evenodd;fill:#353535;stroke:#F7F7F7;stroke-width:2;stroke-miterlimit:10;" d="
	M924.7,598.2c0.3-5.5,0.8-16.2,1.5-26.8c0.1-2,0.1-3.6-1.7-5.3c-4.2-4-3.6-9.7,1-13.6c1.4-1.2,1.8-2.7,2-4.4
	c2.1-25.7,4.2-51.4,6.3-77.1c0.4-5.3,1-10.6,1.7-15.8c0.3-1.8,0.5-4.1,2.9-4.7c2.5-0.7,4.4,0.2,6.2,2.1c2.7,2.7,3.7,6,3.3,9.5
	c-2.5,25.3-5,50.6-6.7,76c-0.3,4.1-1,8.2-0.8,12.4c0.1,2.6,1.1,3.5,3.5,3.7c10,0.9,20,0.3,29.9,0.3c4.5,0,5.1-3.2,5.3-6.4
	c0.9-14.8,3.1-29.4,4.5-44.2c1.2-12.6,3.6-25,5-37.6c0.4-3.4,3.3-4.4,6.2-4.6c3.8-0.3,8,3.7,8.7,7.6c0.7,4.4-0.8,8.6-1.4,12.8
	c-4.2,30.6-8.2,61.3-9.9,92.2c-1,17.1-2.2,34.2-1.8,51.3c0.1,3.2,0.5,6.3,0.7,9.5c0.2,3.1,0.3,6-3,7.8c-3.4,1.9-7.2,2.4-10.5,0.6
	c-2.9-1.5-3.5-4.8-3.3-8.3c0.4-8.6,0.2-17.3,0.6-25.9c0.4-10.8,0.8-21.6,1.8-32.4c0.4-4.7-1.1-6.7-5.6-7.3c-6-0.9-12,0.2-17.9-0.4
	c-1.2-0.1-2.3-0.1-3.5-0.1c-9.9,0.1-10.3,0.1-10.7,10.3c-0.8,18.5-1.6,36.9,0.5,55.4c0.3,2.7,0,5.3-1.7,7.6
	c-2.2,2.8-5.1,3.9-8.4,2.8c-4.3-1.4-4.8-5.7-4.7-9C924.6,625.3,924.8,614.3,924.7,598.2z"/>
<path style="fill-rule:evenodd;clip-rule:evenodd;fill:#353535;stroke:#F7F7F7;stroke-width:2;stroke-miterlimit:10;" d="
	M1102.7,592.2c-0.5-9.9-0.1-20.4-2-30.8c-1-5.4,1.8-11,1.6-16.7c-0.4-13.5,1.3-26.9,0.7-40.4c-0.3-7.1,4.2-10,11.1-8.1
	c8.6,2.4,17.5,0.9,26.3,1.1c8.8,0.2,17.2,1.7,25.3,4.9c8.9,3.4,14.4,11.4,13.3,19.5c-0.8,5.6-3.9,10.2-7,14.7
	c-6.7,9.7-14.5,18.3-25.4,23.3c-4.5,2.1-5.1,4.2-3.2,8.8c5.4,13.1,13.4,24.8,20,37.3c6,11.3,12.4,22.3,19.3,33.1
	c3.6,5.6,2.4,10-2.7,12.6c-5.3,2.7-11.7,1.1-13.9-4.5c-3.6-9-8.4-17.3-13.2-25.6c-6.5-11.4-12.9-22.9-19.1-34.4
	c-2.7-5-5-10.1-7.4-15.3c-1-2.1-2.3-4.1-4.8-3.5c-2.6,0.6-2.5,3.1-2.6,5.3c-0.5,10.2,1.5,20.2,1.3,30.4c-0.2,5.9-2.5,10.1-7.2,10.5
	c-6.9,0.5-10.8-2.8-10.6-10C1102.8,600.7,1102.3,596.7,1102.7,592.2z M1139.7,512.6c-5.1,0.3-9.9,0.7-14.7,0.7
	c-3.6,0-4.9,1.5-4.9,5.1c-0.1,7.6-0.5,15.2-1,22.8c-0.7,10.1-0.8,10,9,7.9c15.5-3.3,25.5-13.4,32.8-26.8c1.5-2.8,0.7-4.7-2.2-6
	C1152.6,513.6,1146,512.9,1139.7,512.6z"/>
<path style="fill-rule:evenodd;clip-rule:evenodd;fill:#353535;stroke:#F7F7F7;stroke-width:2;stroke-miterlimit:10;" d="
	M212.5,311.8c-1.1-18.6-1.2-40-4-61.1c-0.3-2.3-1.1-4.5-1.4-6.8c-0.5-3.5,0.1-6.6,3.6-8.6c3.2-1.9,6.4-1.6,8.6,1
	c3.3,4,6.7,2.8,10.6,1.5c15-5,30.3-8.4,46-10.1c4.1-0.5,8.2-1.5,12.2-2.3c7.4-1.5,13.2,1.1,17.1,7.3c7.2,11.3,7.5,23.2,1.9,35.2
	c-7.3,15.6-17,29.2-31.6,39.1c-7.5,5.1-14.3,11.4-21.4,17.1c-2.9,2.3-6,4-9.4,5.4c-5.1,2.2-8.3-0.2-11.3-3.6
	c-2.8-3.2-0.8-7,3.6-10.3c12-9.1,25.4-16.3,36.2-26.9c10.3-10.1,16.7-22.7,21.8-35.9c0.9-2.5,1-5.3,0.3-7.9
	c-0.8-2.9-2.5-4.8-5.7-4.6c-19.8,1.2-39.2,4.3-58.1,11c-6.4,2.3-6.2,5.6-6,10.8c1.1,27.3,4.2,54.4,5.6,81.6
	c0.5,10.5,1.4,20.9,3,31.3c0.6,3.6,0.5,7.3,0.4,11c-0.2,5.1-2.4,7.2-7.3,7.6c-3.8,0.3-8.1-2.5-8.6-6.6c-1.1-8.6-1.6-17.2-2.6-25.8
	C214.3,345.7,212.6,330.1,212.5,311.8z"/>
<path style="fill-rule:evenodd;clip-rule:evenodd;fill:#353535;stroke:#F7F7F7;stroke-width:2;stroke-miterlimit:10;" d="M742,570.7
	c0,2.3-0.1,4.7,0,7c0.3,7,0.3,7.1,7.6,5.9c12-1.9,23.9-3.3,36.1-3.7c6.3-0.2,11.2-0.7,15,4.9c2.4,3.5,1.7,7.2-0.3,10.3
	c-1.8,2.9-5.2,4.7-8.6,3.5c-9.9-3.6-19.8-1-29.6,0c-9.4,0.9-18.6,3.2-27.6,5.9c-4.8,1.4-11.3-3.9-10.7-8.9c2.3-18.9,1-37.9,2.1-56.8
	c0.9-17.2,0.3-34.6,2.5-51.8c0.9-6.9,5.4-9.8,12.3-7.8c13.3,3.9,26.9,3.1,40.4,1.6c4.2-0.5,8.2-1,11.4,2.6c2.2,2.5,3.8,5.3,2.5,8.6
	c-1.3,3.2-3.6,5.4-7.6,5.4c-12.5-0.1-24.9,1.9-37.3,0.5c-3.3-0.4-4.4,0.9-5.1,3.8c-2.4,11-1.7,22.2-2.5,33.2c-0.2,2.9,1.8,3,4,2.9
	c11.6-0.6,23.2-1,34.8-1.6c12.7-0.8,25.5-0.7,38.2-2.5c5-0.7,9.8,3.8,9.8,8.6c0,5.6-4.8,11-10,9.9c-9.5-2-18.8,0-28.1,0.2
	c-14.1,0.3-28.2,1.6-42.3,2.5c-6.7,0.4-6.7,0.5-6.9,7.3c-0.1,2.8,0,5.7,0,8.5C742.1,570.7,742,570.7,742,570.7z"/>
<path style="fill-rule:evenodd;clip-rule:evenodd;fill:#353535;stroke:#F7F7F7;stroke-width:2;stroke-miterlimit:10;" d="
	M896.9,323.1c0-5.5,0-11,0-16.5c0-2.7-0.7-3.9-3.8-3.5c-4.4,0.6-9,0.7-13.4,0.8c-4.5,0.1-7.6-2.2-9.1-6.4c-1.4-3.8,0-6.8,3.3-9.1
	c1.9-1.4,4.1-1.2,6.2-1.1c7.8,0.3,15.6,0,23.3-1.5c7.5-1.5,11.9,2.4,11.3,10.1c-1.6,20.1-0.1,40.2,1.5,60.2c0.1,0.8,0.3,1.6,0.5,2.4
	c1.6,6.1,0.6,9.8-3,11.3c-5,2.2-11.1,0.4-13.4-5.1c-1.6-3.9-3.3-3.8-6.7-2.8c-17.8,5-35.3,3.3-52.4-3c-12.9-4.7-18.3-15.7-20.8-28.4
	c-3.8-19.4,0.2-38.4,4.2-57.3c2.1-9.9,4.5-19.8,8.5-29.2c4.4-10.3,13.5-14.1,22.8-17.8c2-0.8,4.1-1.4,6.2-1.8
	c4.7-0.9,8.1,1.2,9.4,5.3c1.2,3.9-0.4,6.3-4,7.1c-12.7,2.9-19.7,11-23.2,23.4c-5,17.7-8.7,35.6-9.5,53.9c-0.3,6.5,0.7,13,2.7,19.2
	c2,6.3,6.5,10.5,12.7,12.5c12.8,4,25.8,4.9,38.8,1c8-2.4,9.3-4.2,8.8-12.5c-0.2-3.8-0.4-7.7-0.6-11.5
	C897.2,323.1,897,323.1,896.9,323.1z"/>
<path style="fill-rule:evenodd;clip-rule:evenodd;fill:#353535;stroke:#F7F7F7;stroke-width:2;stroke-miterlimit:10;" d="M305.9,623
	c5.3,0,10.6,0.1,15.9,0c5.1-0.2,8.9,3.1,9.5,8.5c0.5,4.8-2,7.4-7.8,8.3c-7.8,1.2-15.6-0.6-23.3-0.9c-10.8-0.4-21.5-1.4-32.3-2.3
	c-2.4-0.2-4.2,0.8-6.1,1.5c-8.3,3.2-14.2-0.9-14.4-9.7c-0.4-17.3-1.6-34.6-1.2-51.9c0.4-14.8-0.9-29.5-0.2-44.3
	c0.2-5.8-3.1-10.9-2.6-16.7c0.3-3.3,0.4-7.1,3.5-8.2c2.8-1,6.4-1.3,9.3,1.3c3.3,3,7.4,2.2,11.4,2c10.7-0.4,20.8-3.6,31.2-5.7
	c5.2-1,8.8,2,9.8,7.4c0.7,3.8-2.5,8.4-7.2,8.5c-10.2,0.3-19.7,4.3-29.9,4.8c-11.3,0.5-11.3,1.1-10.9,12.5c0.3,8.1,0.7,16.3,0.8,24.4
	c0,3.5,1.4,4.8,4.8,4.8c13.5,0.1,26.9,1,40.3,2.1c4.6,0.4,7.3,3,9.6,6.2c1.5,2,0.8,4.8-0.5,6.6c-1.8,2.4-4.3,3.8-7.8,3.2
	c-13.3-2.4-26.8-2.5-40.3-2.5c-4.6,0-6.4,1.6-6.2,6.1c0.5,8.6,0.8,17.3,1.3,25.9c0.2,3.6,1.6,5.7,5.7,6.1
	C280.7,621.9,293.3,623.6,305.9,623z"/>
<path style="fill-rule:evenodd;clip-rule:evenodd;fill:#353535;stroke:#F7F7F7;stroke-width:2;stroke-miterlimit:10;" d="M43.9,63
	c-6,0-12,0-18,0c-1.2,0-2.3-0.1-3.5-0.3c-3.8-0.7-6.1-3.4-6-6.8c0.1-3.4,3.4-4.7,6.6-4.7c11.1-0.2,22.3-0.8,33.4-0.3
	c20.9,0.9,41.9,0,62.8,0.8c5.5,0.2,11,0.2,16.5,0.4c4.1,0.2,6.9,2,7.9,6.2c1,4.3-1.6,7.5-6.1,7.4c-14.3-0.4-28.5-0.8-42.8-1.2
	c-6.6-0.2-7.5,1.2-6.3,7.7c2.2,11.7,0.8,23.5,1.1,35.3c0.5,18.4,1.5,36.9,2.1,55.3c0.1,3,0.8,4.4,4,3.8c11.1-2,22.3-3,33.5-4
	c7-0.6,9.8,0.2,10.6,5.5c0.8,4.7-3.8,9.9-9.2,10.4c-12.1,1.2-24.1,2.3-36.2,4.1c-13.7,2-26.8,6.7-40.4,8.7
	c-5.3,0.8-10.8,3.7-16.3-0.2c-2.5-1.8-5.3-3.4-4.7-6.8c0.6-3.7,4-5.8,7.3-5.7c12.2,0.3,22.9-5.3,34.5-7.5c3.2-0.6,3.2-3.2,3.1-5.4
	c-1.1-18.4-1.1-36.9-1.3-55.3c-0.2-14.1-0.4-28.2-0.1-42.3c0.1-3.3-1.4-3.9-4.1-4C62.8,63.5,53.3,63,43.9,63z"/>
<path style="fill-rule:evenodd;clip-rule:evenodd;fill:#353535;stroke:#F7F7F7;stroke-width:2;stroke-miterlimit:10;" d="
	M1048.3,528c5.6,0.2,11.2,1.5,16.8-0.6c3.5-1.3,9.6,4,10.3,8.3c0.9,5.2-1.9,9.9-7,10.1c-7.1,0.3-14.3-0.3-21.4-0.6
	c-4.3-0.2-8.6-0.3-12.9-0.6c-3.8-0.3-5.9,1-6.2,5.2c-0.4,7.8-1,15.6-1.7,23.4c-0.3,3.7,1.9,3.5,4.5,3.2c12.6-1.5,25.2-2.3,37.8-1.9
	c4.3,0.1,8.2,1,11.2,4.5c2.4,2.8,2.4,5.8,1.1,8.9c-1.2,2.8-3.6,4.4-6.8,3.8c-15.5-3-30.8,0.1-46,2.1c-2.9,0.4-5.8,1.6-8.7,2
	c-6.4,0.9-10.2-2.4-10.8-8.9c-0.1-1.3,0-2.7,0.2-4c4-20.1,4.1-40.7,6.8-60.9c1.9-14.3,4.1-28.7,6.4-42.9c0.8-5.1,6.2-7.3,13.4-6.1
	c11.9,1.9,23.8,2,35.8,1.2c5.9-0.4,11.8,0,17.8-1c7.2-1.2,12.6,7.2,9.6,13.3c-2.1,4.2-6.2,3.9-9.6,3.7c-15.6-0.9-31.2,0.7-46.8-0.5
	c-5.1-0.4-7.5,0.6-7.9,6.9c-0.6,9.1-2.1,18.1-3.5,27.2c-0.5,3.3,0.7,4.6,3.9,4.6C1039,527.9,1043.6,528,1048.3,528z"/>
<path style="fill-rule:evenodd;clip-rule:evenodd;fill:#353535;stroke:#F7F7F7;stroke-width:2;stroke-miterlimit:10;" d="
	M324.8,269.2c0-2.5-0.1-6.7,0-10.9c0.2-5.3,5.9-8.4,10-5.1c3,2.4,5.4,5,4.9,10c-1.3,15,1.4,29.9,2.9,44.7
	c1.1,10.8,3.5,21.3,6.1,31.8c2,8.1,5.3,15.7,9.9,22.8c2.3,3.5,4,3.5,6.9,0.6c6.3-6.3,10.1-13.4,11.6-22.5
	c2.5-15.5,4.1-30.9,5.6-46.5c1-10.5,4-20.9,6-31.3c1.4-7.4,2.1-14.8,2.1-22.3c0-7.1,2.4-10,8.2-9.9c5.4,0.1,9.9,5.5,9.4,11.3
	c-1.4,16.1-4.1,32-7.8,47.7c-1.7,7.3-2.5,14.7-3.1,22.2c-1,14.8-3.6,29.6-7.8,43.6c-3.3,11.2-11.2,21.2-22.8,26.3
	c-5.6,2.5-12.3-0.2-17.4-7c-7.6-10-13-21.3-15.9-33.6C328.4,318,326.5,294.4,324.8,269.2z"/>
<path style="fill-rule:evenodd;clip-rule:evenodd;fill:#353535;stroke:#F7F7F7;stroke-width:2;stroke-miterlimit:10;" d="M589,611.5
	c-10.5,1.2-23.2,2.5-35.9,4c-8.6,1-17.1,2.3-25.7,3.1c-5.1,0.5-9.6-4-9.7-9.1c-0.1-3.9,4.2-7.7,8.9-7.5c9.1,0.5,17.8-2.2,26.7-2.8
	c4.6-0.3,4.5-3.8,4.3-7c-1-12.9-2.1-25.8-3.1-38.7c-1.2-14.9-2.7-29.8-2.9-44.8c-0.1-6-1-6.8-7.1-6.3c-4,0.3-7.9,0.8-11.9,1.4
	c-4.5,0.7-8.6-1.9-9.1-6.1c-0.9-6.4,1.4-9.7,7-10.1c5.6-0.4,11.8,0.5,16.8-1.5c7-2.9,13.7-2.7,20.9-2.5c4,0.1,8.1-1.7,12.2-2.4
	c5.1-0.8,8.6,1.8,9.2,6.5c0.8,6.4-1.4,9.6-7.1,10.3c-3.3,0.4-6.6,0.9-9.9,0.9c-5,0.1-6.2,3-6,7.2c0.4,9.6,0.6,19.3,1.3,28.9
	c1.4,18.4,3.1,36.8,4.7,55.2c0.6,6.7,1,7.2,7.5,6.3c6.2-0.9,12.6-0.4,18.4-3.8c3-1.8,5.5-0.6,6.3,3.1
	C606.5,604.7,606.3,613.2,589,611.5z"/>
<path style="fill-rule:evenodd;clip-rule:evenodd;fill:#353535;stroke:#F7F7F7;stroke-width:2;stroke-miterlimit:10;" d="M658,235
	c-2.2-0.4-5.3-0.9-8.5-1.3c-3.5-0.4-5.7,0.6-5.6,4.8c0.2,15.1,0.1,30.2,0.2,45.4c0.2,22.1,0.5,44.2,0.7,66.3c0.1,7,0.2,7.2,7.4,8
	c2.1,0.2,4.3,0.8,6.4,1c3.8,0.4,5.6,2.9,6.3,6.2c0.7,3.1-0.6,6.2-3.1,7.9c-3.1,2.1-6.8,3.6-10.8,2.4c-9.1-2.9-18.4-2.4-27.7-2.2
	c-3.8,0.1-7.6,0-11.2-1.7c-3-1.5-4.5-4-4.3-7.2c0.2-3.6,2.7-5.6,6.1-6.3c0.8-0.2,1.7,0,2.5,0c12.3-0.5,11.1,1.1,11-11.2
	c-0.2-28.4,0.7-56.9,0.9-85.3c0-9-0.8-17.9-1-26.9c-0.1-2.7-1.1-3.9-3.6-4.3c-2.3-0.4-4.5-1.2-6.1-3.1c-2.1-2.5-4-4.9-2.4-8.5
	c1.9-4.1,5.9-6,9.4-4.7c12.5,4.7,25.6,3.6,38.3,5c5.3,0.6,9.6,5,8.3,9c-1.6,4.6-6.2,5.4-10.3,6.7C660.3,235.2,659.6,235,658,235z"/>
<path style="fill-rule:evenodd;clip-rule:evenodd;fill:#353535;stroke:#F7F7F7;stroke-width:2;stroke-miterlimit:10;" d="
	M1192.2,381.7c-1.1-10.9-2-21.9-3.5-32.7c-1.9-13.7-2.3-27.5-1.2-41.3c0.6-7.7-2.8-14-6.2-20.1c-7.9-14.5-12.7-29.9-16.1-45.8
	c-0.1-0.3-0.2-0.7-0.1-1c0.7-3.6-1.5-8.7,4.2-9.8c5.7-1.2,10.8,2.4,11.7,8.1c1.9,10.7,4.4,21.1,8.8,31.1c0.3,0.8,0.6,1.5,1,2.3
	c1.5,2.9,2.9,3.3,4.4-0.1c6.6-14.4,15.2-27.6,22.2-41.8c0.4-0.7,0.7-1.5,1.1-2.2c3-4.9,6.6-6.3,10.7-4c3.5,2,4.8,7.9,2.6,11.9
	c-7.9,14.3-15.7,28.6-21.9,43.7c-6.2,15.2-7.7,31.3-6.8,47.5c1.1,19.4,2.5,38.8,6.7,57.9c0.9,4-0.5,7.4-4.4,9
	c-4.5,1.9-9.7-0.2-12-4.4C1192.2,387.4,1192.2,384.6,1192.2,381.7z"/>
<path style="fill-rule:evenodd;clip-rule:evenodd;fill:#353535;stroke:#F7F7F7;stroke-width:2;stroke-miterlimit:10;" d="
	M468.6,352.4c1.4-15.9,2.4-31.8,5.3-47.6c2.7-15,4.8-30.2,5.8-45.5c0.5-7.3,1.7-14.5,2.6-21.8c0.5-3.7-0.1-5.2-4.5-4
	c-13,3.5-26.1,6.5-38.7,11.4c-4.8,1.9-11.6-3.2-11.2-8.1c0.2-2.7,1.1-4.8,4.4-5.9c15.8-5,32.1-8.8,48-13.6c9.9-3,20.1-3.8,30-6.5
	c6.9-1.9,10.6,1,11.5,7.6c0.6,4.1-1.1,6-4.8,6.7c-3.8,0.7-7.5,1.4-11.3,1.8c-4.5,0.5-6,3.1-6.8,7.2c-3,15.4-3.5,31.1-5.2,46.6
	c-2.2,19.5-4.8,38.9-7.1,58.4c-0.8,6.8-0.7,13.6-0.7,20.4c0.1,9-5.9,13-13.2,9.1c-3.5-1.9-4.4-5.2-4.6-8.8
	C468.2,357.4,468.5,354.9,468.6,352.4z"/>
<path style="fill-rule:evenodd;clip-rule:evenodd;fill:#353535;stroke:#F7F7F7;stroke-width:2;stroke-miterlimit:10;" d="
	M667.1,562.4c0,8.5,0.2,17-0.1,25.5c-0.2,4.4,1.2,8.5,1,12.9c-0.2,5-4,7.8-11,7.9c-3.3,0-6.6-3.4-6.6-7.5c0-15.5-0.1-31,0.2-46.5
	c0.3-15.6,1-31.2,1.5-46.8c0.2-5,1.8-9.8,1.6-14.8c-0.1-2.5-0.5-3.6-3.3-3.5c-9.6,0.3-19.3,0.5-28.8,1.5c-5.3,0.6-9.4-1.4-11-5.7
	c-2.4-6.8,1.2-11.8,8.7-11.7c12.3,0,24.6,0.8,36.8-0.1c13.9-1,27.9-0.3,41.8-1.1c4.1-0.2,7.5,1.1,8.9,4.9c1.4,3.7,0.9,7.8-2.1,10.6
	c-2.9,2.7-6.6,4-10.5,2c-6.1-3-12.4-1-18.7-1c-1.6,0-1.9,1.5-2.5,2.7c-4.1,8.7-4,18.1-4.7,27.3C667.2,533.5,667.3,548,667.1,562.4z"
	/>
<path style="fill-rule:evenodd;clip-rule:evenodd;fill:#353535;stroke:#F7F7F7;stroke-width:2;stroke-miterlimit:10;" d="
	M551.7,360.2c0.5-24.1,2.2-49.2,3.6-74.2c0.6-10,1.7-19.9,3.2-29.8c0.8-4.8-0.8-5.9-5.3-5c-5.7,1.2-11.5,1.9-17.2,3
	c-2,0.4-4,0.6-5.9,0.2c-4.3-0.8-7.9-5.1-7.7-9.2c0.2-3.6,3.9-6.8,8.6-6.7c10.4,0.2,20.8-1.4,30.4-4.7c9.2-3.2,18-3,27.1-2.3
	c4,0.3,8.3,1.5,10.5,5.8c2.1,4.2,1.4,5.8-2.9,7.6c-4.3,1.8-8.9,1.4-13.3,1.6c-5,0.2-7,2.8-7.7,7.3c-2.3,13.6-3.4,27.3-3.9,41.1
	c-0.6,17.4-1.6,34.9-2.2,52.3c-0.2,7.3,0.2,14.6,0.1,21.9c0,8.4-2.5,11.2-9.3,11c-4.4-0.1-6.6-2.8-7.6-6.6
	C551.3,369.6,551.3,365.4,551.7,360.2z"/>
<path style="fill-rule:evenodd;clip-rule:evenodd;fill:#353535;stroke:#F7F7F7;stroke-width:2;stroke-miterlimit:10;" d="
	M453.3,633.1c-5.1,0.3-7.2-3-7.8-6.3c-0.7-3.7-0.3-8.1,4.1-10.2c14.6-7.4,28.1-16.3,40.8-26.5c7.3-5.9,6.8-9,0.8-15.8
	c-6.1-7-14.2-9.6-22.5-11.9c-9.1-2.5-17.4-6.3-25.3-11.4c-2.5-1.6-3.1-4.4-2.9-7.5c0.3-6.6,3.6-11.7,7.8-16.2
	c10.2-10.9,20.7-21.6,30.8-32.6c2.8-3,5.7-2.8,8.5-1.4c2.9,1.5,3.7,4.5,2.7,7.8c-0.8,2.6-2.1,4.8-4.1,6.7
	c-8.7,8.6-17.3,17.5-24.8,27.2c-4.5,5.9-4.3,7.1,2.8,9.7c6.7,2.5,13.5,4.7,20.2,7.2c11.8,4.4,19.9,12.9,25.9,23.6
	c3.7,6.5,0.9,16.6-6,22.9c-11.3,10.4-24.5,18.2-37.1,26.8c-2.6,1.8-5.1,3.7-7.5,5.7C457.5,632.6,455.2,633.1,453.3,633.1z"/>
<path style="fill-rule:evenodd;clip-rule:evenodd;fill:#353535;stroke:#F7F7F7;stroke-width:2;stroke-miterlimit:10;" d="
	M900.1,868.6c-5.8-0.2-7.8-2.4-8.3-7.7c-0.5-4.6,2.3-6.3,6.1-7c16.3-3.1,31.8-9.2,47.8-13.5c9.8-2.6,19.5-5.7,29.5-7.3
	c8-1.3,11.2,2.1,9.7,9c-0.7,3.2-2.6,4.6-5.5,4.8c-14.8,1.1-28.7,6-42.8,10.2c-11.3,3.4-22.5,6.8-33.5,11
	C901.7,868.5,900.3,868.6,900.1,868.6z"/>
<path style="fill-rule:evenodd;clip-rule:evenodd;fill:#353535;stroke:#F7F7F7;stroke-width:2;stroke-miterlimit:10;" d="
	M186.6,100.7c-4.5,0.1-8.2-2.5-8.7-7.2c-1-10.4-2.9-20.7-4.6-31c-0.5-3.2,0.5-5.9,4.3-6.7c3.9-0.7,9.1,2,10.3,6
	c1.3,4.6,2.1,9.4,2.9,14.1c0.9,5.4,1.6,10.8,2.5,16.2C194.5,97.9,192.4,100.6,186.6,100.7z"/>
<path style="fill-rule:evenodd;clip-rule:evenodd;fill:#3FC186;" d="M1300.2,595c0-7.2,4.8-11.5,12.7-11.4c6,0.1,11.2,5.5,11.3,11.7
	c0.1,9-4.5,13.5-13.4,13.4C1304.4,608.6,1300.1,603.1,1300.2,595z"/>
</svg>
