<?xml version="1.0" encoding="utf-8"?>
<!-- Generator: Adobe Illustrator 16.0.0, SVG Export Plug-In . SVG Version: 6.00 Build 0)  -->
<!DOCTYPE svg PUBLIC "-//W3C//DTD SVG 1.1//EN" "http://www.w3.org/Graphics/SVG/1.1/DTD/svg11.dtd">
<svg version="1.1" id="Layer_1" xmlns="http://www.w3.org/2000/svg" xmlns:xlink="http://www.w3.org/1999/xlink" x="0px" y="0px"
	 width="1358.9px" height="955.5px" viewBox="0 0 1358.9 955.5" style="enable-background:new 0 0 1358.9 955.5;"
	 xml:space="preserve">
<path style="fill:none;" d="M1236,806.8c1.9-7.6,3.5-14.9,5.6-22c5.6-18.4,7.1-37.4,8.9-56.4c0.3-2.8,0-5.7-0.2-8.5
	c-0.3-5.2-4.7-5.9-8.4-7.2c-2.8-1-4.7,0.9-5.7,2.9c-2.4,4.6-5.4,8.8-6.9,13.8c-6.3,20.2-12.2,40.5-15.1,61.4
	c-1.8,13-5.7,25.6-7.1,38.7c-0.3,2.8-0.3,6-2.8,8.3c-5.8,5.3-11.8,10.2-18.7,14.1c-1.6,0.9-3.4,1-5.2-0.1
	c-5.1-3.2-9.7-18.4-7.2-23.8c1.6-3.6,3.3-7.2,4.4-11.1c3.2-10.7,6.9-21.1,9.1-32.1c0.7-3.3,2.5-3.9,5.4-2.8
	c3.4,1.2,6.9,2.4,10.5,3.3c4.6,1.3,9.5-1,10.2-4.4c0.9-4.4-1.9-8-7-9.1c-4-0.9-8-2.2-12.1-3.1c-2.3-0.5-3.1-1.5-2.7-3.7
	c1.3-7.4,1.4-14.9,2-22.4c0.9-12.2,3.1-24.4,3.4-36.7c0.1-4.1-1.9-6.6-5.2-7.5c-2.7-0.8-6.4-2.8-8.6,0.8c-2.7,4.4-6,8.3-8.1,13.1
	c-6.8,15.2-9.2,31.5-11.9,47.7c-0.5,3.1-1.7,4.3-4.6,3.5c-6.2-1.7-12.7-1.5-18.8-4.2c-4.8-2.1-12.1,0-10.9,6.7
	c0.6,3.4,3,4.4,5.7,5.6c6.9,2.9,14.3,2.8,21.4,4.3c1.8,0.4,4,0.3,3.8,3.5c-1.3,15.9-2.5,31.8-3.6,47.7c-0.1,1.6-0.8,2.9-1.6,4.1
	c-5,7.7-11.5,13.8-19.3,18.4c-6.2,3.6-9,3.1-13.9-2.3c-2.4-2.6-4.2-5.6-5.4-8.9c-1.2-3.2-1.2-6,1.6-9c5.4-5.9,9.7-12.7,11.9-20.5
	c2.5-9-4.3-18.4-11.9-15.8c-6.4,2.2-12.4,5.6-14.6,13c-1.2,3.8-2,7.7-3,11.6c-1,3.7,0.5,8-1.9,11.2c-5.4,7-11.7,13.1-19.1,18
	c-1.6,1-2.3,0.7-3-0.9c-3.7-7.9-5.1-16.6-6.8-24.9c-1.2-5.5-2.1-11.3-3.2-16.9c-1.6-7.8-7.2-12.9-14.6-15c-7.2-2-14.8-2.9-19.9,5.1
	c-0.9,1.4-2.2,2.5-3.5,3.5c-12.2,8.8-16.6,22.4-21.7,35.5c-1.5,3.8,0.7,6.8,4.2,8.4c4.6,2.1,6.3,1.1,11.1-5.9
	c1.7,0.6,2.2,2.4,3.2,3.7c5.3,6.4,11.2,11.3,20.3,10.5c4-0.4,7.2-2.3,10.7-3.8c1.7-0.7,3-1.4,4.4,0.2c3,3.3,3.2,13.8,0.2,16.9
	c-9.5,9.8-16.8,21.2-22.1,33.5c-7.5,17.3-7.2,33.4,13.8,44.1c8.1,4.1,22.7,0.1,27.3-7.4c5.4-8.8,7-18.4,6.3-28.2
	c-0.8-12.1-1.4-24.2-4.2-36.1c-0.8-3.5,0.3-5.9,2.9-7.7c5.5-4,10.8-8.3,15.6-13.1c2.7-2.7,4.7-1.9,6.1,1c1.5,2.9,3.2,5.6,5.7,7.5
	c12.2,9.6,16.6,10.6,30.4,4.1c5-2.4,9.1-6.1,13.5-9.3c5.1-3.7,5.1-3.8,8.2,1.8c7.7,13.8,19.4,17.1,33.1,9.3c2.6-1.4,5.7-4.9,7.6-3.7
	c2.8,1.7,1,6.1,1.3,9.4c0.2,2.9-0.9,6,1,8.7c2.2,3.2,4.9,4.3,9,3c4.9-1.6,6.3-4.7,5.9-9.4c-2.1-25.4,10.1-42.8,31.2-55.2
	c3.3-1.9,4.5-0.6,5.2,2.4c0.3,1.1,0.3,2.3,0.3,3.5c0.7,16.9,1.1,33.8,4.6,50.6c3.8,18,12.9,32.3,32.9,36.3
	c7.3,1.5,14.8,2.7,22.1-0.2c3.8-1.5,6.9-6.2,5.9-9.3c-1.4-4.2-5.2-4.8-8.9-4.9c-2.8-0.1-5.6,0.5-8.5,0.5c-12.6,0-21-6-25-18.1
	c-4.1-12.2-5.4-25-6.6-37.7c-0.8-8.4,0-17-1.8-25.4c-2.6-12.3-12.9-20.7-24.6-11.8C1244.6,803.2,1241.2,806.4,1236,806.8z
	 M748.1,301c0,10.1,0,21.6,0,33.1c0,1.1,0.4,2.7-0.9,3.1c-1.4,0.5-1.8-1-2.3-2.1c-5.1-11.9-11-23.4-16.9-35
	c-8.2-16-17-31.6-25.5-47.4c-3.3-6.1-10.2-6.4-14.5-1.1c-0.8,1-1.8,2.2-2.9,2.6c-6.3,2.5-6.7,7.2-6.1,13.1
	c1.7,15.9,2.3,31.9,2.4,47.8c0.2,15.3,0.1,30.7,2.4,45.9c0.9,6.2,2,12.5,3.5,18.6c1.5,6,6.4,7,11.8,6.5c3.9-0.4,5.1-3.6,4.3-9.6
	c-0.1-1-0.3-2-0.5-3c-1.7-10.7-3.3-21.4-3.9-32.1c-1.2-19.4-0.2-39-2.3-58.3c-0.2-1.4-0.5-3.5,1.3-3.9c1.7-0.4,2.2,1.7,2.9,3
	c5.4,10.5,10.9,20.9,16.1,31.5c8.2,16.9,16.4,33.8,22,51.8c1.1,3.6,2.6,7.5,5.9,8.9c3.6,1.6,6.8,3.8,10.1,5.8
	c4,2.4,8.4,2.2,11.7-0.3c3.2-2.4,2.3-6.6,1.2-10.3c-0.6-1.9-0.8-3.9-1-5.9c-2.8-31.2-2.9-62.5-2.2-93.8c0.2-7.3,1.5-14.6,2.4-21.8
	c0.6-4.5-2.7-8.8-6.8-9.6c-4.1-0.8-7.3,1.4-8.6,6.3c-0.7,2.4-1.1,4.9-1.4,7.3C748.1,268,748.4,283.9,748.1,301z M1119.6,260.9
	c0.6,1.2,0.9,1.6,1,2.1c5.1,23.3,7.3,47,11.3,70.5c1,5.9,1.4,11.9,2.4,17.8c0.9,4.7,6.5,7.5,11.4,6.2c4.2-1.1,6.2-5,4.9-9.9
	c-0.5-2.1-1.4-4-1.7-6.2c-2.1-15.5-4.5-30.9-7-46.3c-3.3-20-8-39.8-9.9-60c-0.2-2.4-1.3-4.5-2.8-6.3c-3.6-4.1-11.8-3.7-13.8,0.7
	c-7.9,17.6-14.7,35.7-21,53.9c-0.6,1.8-0.7,4-3.3,4.9c-0.2-0.8-0.6-1.6-0.6-2.3c-1.3-16.1-2.7-32.1-3.9-48.2
	c-0.5-6.4-4.5-11.1-11.9-8.9c-4.1,1.2-4.1,4.2-5.4,7c-5.4,12-11.6,23.6-15.9,36c-5.5,15.5-10.7,31.2-16.8,46.4
	c-4.8,11.8-7.5,24.1-11.5,36.1c-1.1,3.4,2.2,10,5.1,10.8c4.1,1.2,6.8-0.4,8.7-5.9c2-5.8,3.2-11.9,5.4-17.6
	c6.8-18.2,13.8-36.4,20.2-54.8c2.2-6.5,3.9-13.3,8.4-18.8c1.7,0.7,1.6,2,1.6,3.1c0.8,11.3,2.1,22.5,3.9,33.7
	c1.1,6.9,2,13.8,4.2,20.5c1.4,4.2,4.6,6.1,8.8,5.9c4.2-0.2,6-3.1,6.4-7c0.2-1.6,0.8-3.2,1.2-4.8c3.6-15.8,10.7-30.4,15.6-45.7
	C1115.6,269.4,1116.9,265.3,1119.6,260.9z M150.4,548.1c-0.8,10.8-1.5,21.6-2.5,32.3c-0.7,7.6-1.5,15.2-2.6,22.8
	c-0.3,2.3-0.6,6.1-3,6.3c-2.3,0.2-3.1-3.5-4-5.6c-10-25-19.5-50.2-30.1-74.9c-3.5-8.2-6.5-16.7-10-24.9c-2.2-5.1-8.1-7.4-12.8-4.8
	c-5.5,3-1.6,7.3-0.1,10.2c3.1,6.1,5.6,12.4,8.1,18.7c6,14.8,11.7,29.6,17.9,44.3c4.9,11.8,8.7,24,14.1,35.6c3,6.5,7,12.8,6.9,20.6
	c0,3.6,5.4,7.5,9.3,7.6c4.4,0.1,8.2-0.8,9.8-5.8c1-3,2.4-5.9,4-8.6c4.2-7.3,7.1-14.8,7.1-23.5c0-4.1,0.1-8.3,1.5-12.3
	c0.3-0.9,0.1-2.2,1.4-2.3c1.3-0.1,1.3,1.2,1.8,2c5.8,11.6,11.9,23,19.3,33.6c2.4,3.4,5.7,5.4,10.1,4.9c4.1-0.4,5.4-3.5,6.3-6.8
	c1.3-4.8,2.5-9.7,3.2-14.6c3-22.4,7.5-44.5,11.3-66.8c1.6-9.5,3.5-18.9,6.6-28.1c1.7-5-2.2-10.9-7.2-11.8c-5.7-1-8,1.1-9.4,7.7
	c-6.3,29.9-9.9,60.3-15.8,90.3c-0.2,1.1,0.3,2.7-1,3.1c-1.8,0.5-1.9-1.5-2.5-2.5c-7.8-13.1-13.2-27.1-17.8-41.6
	c-2.4-7.5-2.4-15.4-5.2-22.7c-1.4-3.8-6.5-5.7-10.9-4.7c-4.8,1.1-5.7,4.4-5.3,8.6C149.5,538.8,150.5,543.4,150.4,548.1z
	 M410.8,541.5c0.3-7.3-3.3-13.5-5.1-20.2c-2.3-8.4-8.1-12-16.6-14c-12.8-3-25.9-4-38.5-7.7c-6-1.7-9.2,1.1-9.7,7.5
	c-0.3,3.8,1.5,7.1,1.9,10.7c1.7,16,3.6,32.1,4.9,48.2c1.2,13.7,1.9,27.5,2.4,41.3c0.5,12.8-3,25.4-1.2,38.2c0.2,1.5-0.9,2.4-1.7,3.4
	c-4.3,5.4-3.8,10.3,1.2,14.2c5.3,4.1,8.8,3.7,13.3-2.3c5.7-7.5,13-13.4,20.5-18.7c10.8-7.7,22.2-14.7,30.8-25.1
	c6.2-7.5,11.8-15.5,8.3-26.2c-3.6-10.9-10-18.9-21.7-22c-6.6-1.7-6.5-2-1.8-6.4c1.7-1.6,3.4-3.2,5.2-4.6
	C408.3,553.6,411.4,548.5,410.8,541.5z M229.5,79c2.3,12.5,6,24.6,7,37.2c0.2,2.8,0.6,5.1,3.3,6.7c6.2,3.7,11.3,2.3,13.6-4.8
	c3.2-10,5.9-20.1,8.5-30.2c2.3-8.7,6.8-16.2,11.8-23.5c0.9-1.3,2.1-3.1,3.9-2.6c1.9,0.5,1.6,2.7,2,4.2c2.7,9.5,3,19.4,3.6,29.1
	c0.6,10.3,0.1,20.6,0.5,30.9c0.4,12.7,5.5,24.6,6.6,37.3c0.5,5.7,5.3,8.5,11.3,7.3c4-0.8,5.7-4.3,4.6-9.9c-0.3-1.8-0.7-3.6-1-5.4
	c-2.1-12.4-7.2-24.4-6-37.3c1.1-12.2-0.5-24.3-1.9-36.3c-1.4-12.5-4-24.9-9.1-36.6c-3.3-7.5-10.2-9.3-15.9-3.7
	c-10.3,10.1-18.9,21.5-24.1,35.1c-0.4,1-0.4,2.4-2.6,2.2c-0.7-5-1.5-10.1-2.3-15.1c-1.2-7.9-2.1-15.8-4.7-23.4
	c-1.4-4.1-5.1-5.4-9.2-5.2c-3.9,0.1-6,2.5-7.1,5.9c-1.4,4.3-2.6,8.6-4.1,12.8c-11.2,31.8-19.4,64.6-30.4,96.5
	c-1.3,3.7,1.2,8.6,5,10.2c3.6,1.5,8.2-0.4,9.9-4.3c1.4-3.3,2.7-6.8,3.8-10.3c5.7-18.2,11.3-36.5,17.2-54.7
	C225.1,87,226.2,82.7,229.5,79z M1194.9,542.5c0,6.5,0,13,0,19.5c0,9.8-2,19.5-2.4,29.2c-0.3,7,3.7,10.2,10.7,9.4
	c5.3-0.6,10.3-2.5,15.7-2.7c13.8-0.4,27.5-0.5,40.9,4c3.4,1.2,7.4,2.1,10.4-1.9c4.4-5.9,0.4-14.8-7.9-15.7
	c-4.8-0.6-9.5-1.5-14.3-1.9c-10.8-0.8-21.6-1.2-32.4-0.8c-3.4,0.1-4.5-1-4.2-4.2c0.4-5,0.7-10,0.8-14.9c0.1-7.5,0-7.5,7.5-8.8
	c1.1-0.2,2.3-0.5,3.5-0.4c16.5,1,32.8-2.9,49.3-1.9c5.5,0.3,8.2-3.3,7.3-8.7c-1.1-7-5.3-9.2-13.5-8.8c-16.6,0.9-33.2,3-49.8,2.2
	c-3-0.1-4.2-1-4.1-4.1c0.3-10.6,0.4-21.3,1.8-31.9c0.4-3.1,1.9-4.5,4.7-4.7c5-0.4,9.9-0.8,14.9-1.2c19.2-1.6,38.4-3.7,57.8-3.9
	c6.3-0.1,12.6,0.4,18.9,0.3c5-0.1,8-3.6,8-8.4c0-6.7-6.8-11.3-14.3-9.3c-5.4,1.5-11,1.9-16.3,1.8c-16-0.3-31.7,2.1-47.6,2.9
	c-16.4,0.8-32.7,3.5-49.2,2.1c-5.5-0.5-8.9,2.7-9.1,8.1c-0.2,7.4,1.9,10.1,9.4,10.5c4.6,0.3,5.8,1.9,5.3,6.3
	C1195.3,517.2,1195.8,529.9,1194.9,542.5z M924.7,598.2c0.1,16.1-0.1,27.1-0.3,38.1c-0.1,3.3,0.4,7.6,4.7,9c3.3,1.1,6.2,0,8.4-2.8
	c1.8-2.3,2.1-4.8,1.7-7.6c-2.1-18.4-1.3-36.9-0.5-55.4c0.5-10.2,0.8-10.2,10.7-10.3c1.2,0,2.3-0.1,3.5,0.1c6,0.6,11.9-0.5,17.9,0.4
	c4.5,0.7,6,2.6,5.6,7.3c-1,10.8-1.4,21.6-1.8,32.4c-0.3,8.6-0.2,17.3-0.6,25.9c-0.1,3.4,0.5,6.7,3.3,8.3c3.3,1.7,7,1.3,10.5-0.6
	c3.3-1.8,3.2-4.7,3-7.8c-0.2-3.2-0.6-6.3-0.7-9.5c-0.4-17.1,0.9-34.2,1.8-51.3c1.7-30.9,5.7-61.6,9.9-92.2c0.6-4.3,2.2-8.4,1.4-12.8
	c-0.7-3.9-4.9-7.9-8.7-7.6c-2.9,0.2-5.8,1.2-6.2,4.6c-1.3,12.6-3.8,25-5,37.6c-1.4,14.7-3.6,29.4-4.5,44.2c-0.2,3.2-0.7,6.4-5.3,6.4
	c-10,0-20,0.6-29.9-0.3c-2.4-0.2-3.4-1.1-3.5-3.7c-0.1-4.2,0.6-8.3,0.8-12.4c1.7-25.4,4.2-50.7,6.7-76c0.4-3.6-0.7-6.8-3.3-9.5
	c-1.8-1.9-3.7-2.8-6.2-2.1c-2.4,0.7-2.6,2.9-2.9,4.7c-0.7,5.3-1.2,10.6-1.7,15.8c-2.1,25.7-4.2,51.4-6.3,77.1
	c-0.1,1.7-0.6,3.2-2,4.4c-4.6,3.9-5.2,9.6-1,13.6c1.8,1.7,1.8,3.3,1.7,5.3C925.6,582,925,592.7,924.7,598.2z M1102.7,592.2
	c-0.4,4.5,0.1,8.5,0,12.5c-0.2,7.1,3.8,10.5,10.6,10c4.7-0.4,7-4.6,7.2-10.5c0.3-10.2-1.8-20.2-1.3-30.4c0.1-2.2,0-4.7,2.6-5.3
	c2.5-0.6,3.8,1.4,4.8,3.5c2.4,5.1,4.7,10.3,7.4,15.3c6.2,11.5,12.6,23,19.1,34.4c4.8,8.4,9.5,16.7,13.2,25.6
	c2.2,5.5,8.6,7.2,13.9,4.5c5.1-2.7,6.3-7,2.7-12.6c-6.9-10.8-13.4-21.8-19.3-33.1c-6.6-12.5-14.6-24.1-20-37.3
	c-1.9-4.6-1.3-6.8,3.2-8.8c10.9-5,18.7-13.7,25.4-23.3c3.1-4.5,6.3-9.1,7-14.7c1.1-8.1-4.4-16.1-13.3-19.5
	c-8.1-3.1-16.6-4.6-25.3-4.9c-8.8-0.2-17.7,1.3-26.3-1.1c-7-1.9-11.4,0.9-11.1,8.1c0.5,13.5-1.2,26.9-0.7,40.4
	c0.2,5.7-2.6,11.2-1.6,16.7C1102.6,571.9,1102.2,582.3,1102.7,592.2z M212.5,311.8c0.1,18.3,1.8,33.8,3.6,49.4
	c1,8.6,1.5,17.2,2.6,25.8c0.5,4.1,4.7,6.9,8.6,6.6c5-0.4,7.1-2.5,7.3-7.6c0.1-3.6,0.2-7.4-0.4-11c-1.6-10.4-2.5-20.8-3-31.3
	c-1.4-27.3-4.6-54.4-5.6-81.6c-0.2-5.2-0.4-8.5,6-10.8c18.9-6.8,38.3-9.8,58.1-11c3.2-0.2,4.9,1.7,5.7,4.6c0.7,2.6,0.6,5.4-0.3,7.9
	c-5.1,13.3-11.6,25.9-21.8,35.9c-10.8,10.6-24.2,17.8-36.2,26.9c-4.3,3.3-6.3,7.1-3.6,10.3c2.9,3.3,6.1,5.7,11.3,3.6
	c3.4-1.4,6.6-3.2,9.4-5.4c7.2-5.7,13.9-11.9,21.4-17.1c14.5-9.9,24.3-23.5,31.6-39.1c5.6-12,5.3-23.9-1.9-35.2
	c-3.9-6.2-9.7-8.8-17.1-7.3c-4.1,0.8-8.1,1.8-12.2,2.3c-15.7,1.7-31.1,5.1-46,10.1c-3.9,1.3-7.3,2.5-10.6-1.5
	c-2.2-2.6-5.4-2.9-8.6-1c-3.4,2-4.1,5.1-3.6,8.6c0.3,2.3,1.1,4.5,1.4,6.8C211.3,271.9,211.4,293.2,212.5,311.8z M742,570.7
	c0,0,0.1,0,0.1,0c0-2.8-0.1-5.7,0-8.5c0.2-6.9,0.2-6.9,6.9-7.3c14.1-0.9,28.2-2.1,42.3-2.5c9.4-0.2,18.7-2.2,28.1-0.2
	c5.2,1.1,10.1-4.2,10-9.9c0-4.8-4.9-9.3-9.8-8.6c-12.7,1.8-25.5,1.7-38.2,2.5c-11.6,0.7-23.2,1.1-34.8,1.6c-2.2,0.1-4.3,0-4-2.9
	c0.8-11.1,0.1-22.3,2.5-33.2c0.7-3,1.8-4.2,5.1-3.8c12.5,1.5,24.9-0.6,37.3-0.5c4,0,6.3-2.2,7.6-5.4c1.3-3.2-0.4-6.1-2.5-8.6
	c-3.2-3.7-7.1-3.1-11.4-2.6c-13.5,1.5-27.1,2.3-40.4-1.6c-6.9-2-11.4,0.9-12.3,7.8c-2.2,17.2-1.5,34.5-2.5,51.8
	c-1,18.9,0.2,37.9-2.1,56.8c-0.6,5.1,5.9,10.4,10.7,8.9c9.1-2.7,18.2-5,27.6-5.9c9.8-1,19.7-3.6,29.6,0c3.4,1.2,6.8-0.6,8.6-3.5
	c2-3.1,2.7-6.8,0.3-10.3c-3.8-5.6-8.8-5.1-15-4.9c-12.2,0.4-24.1,1.8-36.1,3.7c-7.3,1.1-7.3,1.1-7.6-5.9
	C741.9,575.3,742,573,742,570.7z M896.9,323.1c0.2,0,0.3,0,0.5,0c0.2,3.8,0.3,7.7,0.6,11.5c0.5,8.3-0.8,10.1-8.8,12.5
	c-13,3.9-26,3-38.8-1c-6.2-1.9-10.7-6.2-12.7-12.5c-2-6.2-3-12.7-2.7-19.2c0.8-18.4,4.5-36.2,9.5-53.9c3.5-12.3,10.5-20.5,23.2-23.4
	c3.6-0.8,5.2-3.2,4-7.1c-1.3-4.1-4.7-6.2-9.4-5.3c-2.1,0.4-4.2,1-6.2,1.8c-9.4,3.7-18.4,7.6-22.8,17.8c-4,9.4-6.4,19.2-8.5,29.2
	c-4,18.9-8,37.8-4.2,57.3c2.4,12.7,7.9,23.7,20.8,28.4c17,6.3,34.6,8,52.4,3c3.4-1,5-1.1,6.7,2.8c2.3,5.5,8.3,7.3,13.4,5.1
	c3.6-1.5,4.5-5.2,3-11.3c-0.2-0.8-0.4-1.6-0.5-2.4c-1.6-20-3.1-40.1-1.5-60.2c0.6-7.7-3.8-11.6-11.3-10.1
	c-7.7,1.5-15.5,1.8-23.3,1.5c-2.1-0.1-4.3-0.3-6.2,1.1c-3.2,2.3-4.6,5.3-3.3,9.1c1.5,4.2,4.6,6.5,9.1,6.4c4.5-0.1,9-0.3,13.4-0.8
	c3.1-0.4,3.8,0.8,3.8,3.5C896.9,312.1,896.9,317.6,896.9,323.1z M305.9,623c-12.7,0.6-25.2-1.1-37.8-2c-4.1-0.3-5.5-2.5-5.7-6.1
	c-0.4-8.6-0.8-17.3-1.3-25.9c-0.3-4.5,1.6-6.1,6.2-6.1c13.5,0,27,0.1,40.3,2.5c3.5,0.6,6-0.8,7.8-3.2c1.4-1.8,2-4.5,0.5-6.6
	c-2.3-3.2-4.9-5.8-9.6-6.2c-13.4-1.1-26.9-2-40.3-2.1c-3.3,0-4.7-1.3-4.8-4.8c-0.1-8.1-0.6-16.3-0.8-24.4
	c-0.4-11.4-0.4-12,10.9-12.5c10.2-0.4,19.7-4.5,29.9-4.8c4.7-0.1,8-4.8,7.2-8.5c-1.1-5.5-4.6-8.5-9.8-7.4
	c-10.4,2.1-20.5,5.3-31.2,5.7c-4,0.2-8.1,1-11.4-2c-2.9-2.7-6.5-2.4-9.3-1.3c-3.1,1.2-3.2,4.9-3.5,8.2c-0.5,5.8,2.9,10.9,2.6,16.7
	c-0.6,14.7,0.6,29.5,0.2,44.3c-0.4,17.3,0.8,34.6,1.2,51.9c0.2,8.9,6.1,12.9,14.4,9.7c2-0.8,3.7-1.7,6.1-1.5
	c10.7,1,21.5,1.9,32.3,2.3c7.8,0.3,15.5,2.1,23.3,0.9c5.8-0.9,8.3-3.5,7.8-8.3c-0.6-5.4-4.4-8.7-9.5-8.5
	C316.5,623.1,311.2,623,305.9,623z M43.9,63c9.5,0,18.9,0.5,28.4,1.1c2.7,0.1,4.2,0.7,4.1,4c-0.3,14.1-0.1,28.2,0.1,42.3
	c0.3,18.4,0.2,36.9,1.3,55.3c0.1,2.2,0.2,4.8-3.1,5.4c-11.5,2.2-22.3,7.8-34.5,7.5c-3.4-0.1-6.7,2-7.3,5.7c-0.6,3.4,2.2,5,4.7,6.8
	c5.5,3.9,11.1,0.9,16.3,0.2c13.6-2,26.7-6.7,40.4-8.7c12-1.7,24.1-2.9,36.2-4.1c5.3-0.5,9.9-5.7,9.2-10.4c-0.9-5.3-3.6-6.2-10.6-5.5
	c-11.2,1-22.4,2-33.5,4c-3.2,0.6-3.9-0.9-4-3.8c-0.6-18.4-1.6-36.9-2.1-55.3c-0.3-11.8,1-23.6-1.1-35.3c-1.2-6.5-0.3-7.8,6.3-7.7
	c14.3,0.4,28.6,0.8,42.8,1.2c4.4,0.1,7.1-3.1,6.1-7.4c-1-4.2-3.9-6.1-7.9-6.2c-5.5-0.2-11-0.2-16.5-0.4c-20.9-0.8-41.8,0.1-62.8-0.8
	c-11.1-0.5-22.3,0.1-33.4,0.3c-3.2,0.1-6.5,1.3-6.6,4.7c-0.1,3.4,2.2,6.1,6,6.8c1.1,0.2,2.3,0.3,3.5,0.3C31.9,63,37.9,63,43.9,63z
	 M1048.3,528c-4.7,0-9.3,0-14,0c-3.2,0-4.4-1.2-3.9-4.6c1.3-9,2.9-18.1,3.5-27.2c0.4-6.3,2.8-7.3,7.9-6.9
	c15.6,1.1,31.2-0.5,46.8,0.5c3.4,0.2,7.4,0.5,9.6-3.7c3.1-6.1-2.3-14.5-9.6-13.3c-6,1-11.9,0.6-17.8,1c-11.9,0.9-23.9,0.8-35.8-1.2
	c-7.2-1.2-12.6,1.1-13.4,6.1c-2.3,14.3-4.5,28.6-6.4,42.9c-2.7,20.3-2.8,40.8-6.8,60.9c-0.3,1.3-0.3,2.7-0.2,4
	c0.6,6.5,4.4,9.8,10.8,8.9c2.9-0.4,5.8-1.6,8.7-2c15.3-2,30.5-5.1,46-2.1c3.3,0.6,5.6-1,6.8-3.8c1.3-3,1.3-6-1.1-8.9
	c-3-3.6-6.9-4.4-11.2-4.5c-12.7-0.4-25.3,0.4-37.8,1.9c-2.5,0.3-4.8,0.5-4.5-3.2c0.6-7.8,1.3-15.6,1.7-23.4c0.2-4.2,2.4-5.4,6.2-5.2
	c4.3,0.3,8.6,0.5,12.9,0.6c7.1,0.3,14.3,0.8,21.4,0.6c5.1-0.2,8-4.8,7-10.1c-0.8-4.3-6.8-9.6-10.3-8.3
	C1059.5,529.4,1053.9,528.2,1048.3,528z M324.8,269.2c1.7,25.2,3.6,48.8,9,71.8c2.9,12.3,8.2,23.5,15.9,33.6
	c5.2,6.8,11.8,9.6,17.4,7c11.6-5.2,19.5-15.2,22.8-26.3c4.2-14,6.8-28.8,7.8-43.6c0.5-7.5,1.3-14.9,3.1-22.2
	c3.7-15.7,6.5-31.6,7.8-47.7c0.5-5.8-4-11.2-9.4-11.3c-5.8-0.1-8.2,2.8-8.2,9.9c0,7.5-0.7,14.9-2.1,22.3c-2,10.5-5,20.8-6,31.3
	c-1.5,15.6-3.1,31-5.6,46.5c-1.5,9.1-5.3,16.2-11.6,22.5c-2.9,3-4.7,2.9-6.9-0.6c-4.6-7.1-7.9-14.6-9.9-22.8
	c-2.5-10.5-5-21.1-6.1-31.8c-1.5-14.9-4.2-29.7-2.9-44.7c0.4-5-1.9-7.7-4.9-10c-4.1-3.2-9.8-0.2-10,5.1
	C324.6,262.5,324.8,266.7,324.8,269.2z M589,611.5c17.4,1.7,17.5-6.8,15.4-16c-0.8-3.6-3.3-4.8-6.3-3.1c-5.8,3.4-12.2,2.9-18.4,3.8
	c-6.5,0.9-6.9,0.5-7.5-6.3c-1.5-18.4-3.3-36.8-4.7-55.2c-0.7-9.6-0.9-19.2-1.3-28.9c-0.2-4.2,1-7.1,6-7.2c3.3,0,6.6-0.5,9.9-0.9
	c5.8-0.7,7.9-3.9,7.1-10.3c-0.6-4.7-4.1-7.3-9.2-6.5c-4.1,0.7-8.2,2.5-12.2,2.4c-7.2-0.2-13.9-0.3-20.9,2.5c-5,2-11.1,1.1-16.8,1.5
	c-5.6,0.4-7.9,3.7-7,10.1c0.6,4.2,4.6,6.8,9.1,6.1c3.9-0.6,7.9-1.1,11.9-1.4c6.1-0.4,7,0.4,7.1,6.3c0.2,15,1.7,29.9,2.9,44.8
	c1,12.9,2.2,25.8,3.1,38.7c0.2,3.2,0.3,6.6-4.3,7c-8.9,0.6-17.6,3.4-26.7,2.8c-4.8-0.3-9,3.6-8.9,7.5c0.1,5.2,4.7,9.7,9.7,9.1
	c8.6-0.9,17.2-2.2,25.7-3.1C565.7,614,578.4,612.7,589,611.5z M658,235c1.6,0,2.3,0.2,2.9,0c4.1-1.3,8.7-2.1,10.3-6.7
	c1.4-4-2.9-8.4-8.3-9c-12.8-1.5-25.9-0.3-38.3-5c-3.5-1.3-7.5,0.6-9.4,4.7c-1.6,3.5,0.3,6,2.4,8.5c1.6,1.9,3.8,2.7,6.1,3.1
	c2.5,0.5,3.5,1.6,3.6,4.3c0.2,9,1,17.9,1,26.9c-0.1,28.4-1,56.9-0.9,85.3c0.1,12.3,1.3,10.7-11,11.2c-0.8,0-1.7-0.1-2.5,0
	c-3.5,0.7-5.9,2.7-6.1,6.3c-0.2,3.2,1.3,5.7,4.3,7.2c3.6,1.7,7.3,1.8,11.2,1.7c9.3-0.2,18.7-0.7,27.7,2.2c4,1.3,7.7-0.3,10.8-2.4
	c2.5-1.7,3.8-4.8,3.1-7.9c-0.7-3.2-2.5-5.8-6.3-6.2c-2.1-0.2-4.3-0.8-6.4-1c-7.2-0.8-7.3-1-7.4-8c-0.2-22.1-0.6-44.2-0.7-66.3
	c-0.1-15.1,0-30.2-0.2-45.4c-0.1-4.2,2.1-5.2,5.6-4.8C652.7,234.1,655.8,234.7,658,235z M1192.2,381.7c0,2.8-0.1,5.7,1.4,8.3
	c2.3,4.1,7.6,6.2,12,4.4c3.9-1.6,5.3-5,4.4-9c-4.2-19.1-5.7-38.5-6.7-57.9c-0.9-16.2,0.6-32.3,6.8-47.5c6.1-15.1,14-29.4,21.9-43.7
	c2.2-4,0.9-9.9-2.6-11.9c-4.1-2.3-7.7-1-10.7,4c-0.4,0.7-0.7,1.5-1.1,2.2c-7,14.1-15.7,27.4-22.2,41.8c-1.6,3.4-2.9,3-4.4,0.1
	c-0.4-0.7-0.7-1.5-1-2.3c-4.4-10-6.9-20.4-8.8-31.1c-1-5.7-6-9.3-11.7-8.1c-5.6,1.2-3.5,6.2-4.2,9.8c-0.1,0.3,0.1,0.7,0.1,1
	c3.4,16,8.2,31.4,16.1,45.8c3.3,6.1,6.8,12.4,6.2,20.1c-1.1,13.8-0.7,27.5,1.2,41.3C1190.2,359.9,1191.1,370.8,1192.2,381.7z
	 M468.6,352.4c-0.1,2.5-0.4,5-0.3,7.5c0.2,3.6,1,7,4.6,8.8c7.3,3.9,13.2-0.1,13.2-9.1c0-6.8-0.1-13.7,0.7-20.4
	c2.3-19.5,4.8-38.9,7.1-58.4c1.8-15.5,2.2-31.2,5.2-46.6c0.8-4.1,2.4-6.7,6.8-7.2c3.8-0.4,7.6-1.1,11.3-1.8c3.6-0.7,5.4-2.6,4.8-6.7
	c-1-6.7-4.6-9.5-11.5-7.6c-9.9,2.7-20.2,3.5-30,6.5c-15.9,4.8-32.1,8.5-48,13.6c-3.3,1-4.1,3.2-4.4,5.9c-0.4,4.9,6.4,10,11.2,8.1
	c12.6-4.9,25.7-7.9,38.7-11.4c4.3-1.2,5,0.3,4.5,4c-1,7.3-2.1,14.5-2.6,21.8c-1.1,15.3-3.1,30.5-5.8,45.5
	C471,320.5,470.1,336.5,468.6,352.4z M667.1,562.4c0.2-14.5,0.1-28.9,1.2-43.3c0.7-9.2,0.5-18.7,4.7-27.3c0.6-1.2,0.9-2.7,2.5-2.7
	c6.2,0,12.6-2,18.7,1c3.9,1.9,7.7,0.7,10.5-2c3-2.8,3.4-6.9,2.1-10.6c-1.4-3.8-4.8-5.1-8.9-4.9c-13.9,0.8-27.8,0.1-41.8,1.1
	c-12.2,0.9-24.5,0.1-36.8,0.1c-7.5,0-11.1,5-8.7,11.7c1.5,4.3,5.7,6.3,11,5.7c9.6-1.1,19.2-1.3,28.8-1.5c2.8-0.1,3.2,1,3.3,3.5
	c0.2,5.1-1.4,9.9-1.6,14.8c-0.5,15.6-1.2,31.2-1.5,46.8c-0.3,15.5-0.3,31-0.2,46.5c0,4.1,3.3,7.5,6.6,7.5c7-0.1,10.8-2.9,11-7.9
	c0.2-4.4-1.2-8.5-1-12.9C667.3,579.4,667.1,570.9,667.1,562.4z M551.7,360.2c-0.4,5.2-0.4,9.4,0.6,13.4c0.9,3.8,3.1,6.5,7.6,6.6
	c6.8,0.2,9.3-2.6,9.3-11c0-7.3-0.4-14.6-0.1-21.9c0.6-17.4,1.6-34.9,2.2-52.3c0.5-13.8,1.6-27.5,3.9-41.1c0.8-4.5,2.7-7.1,7.7-7.3
	c4.4-0.2,9,0.2,13.3-1.6c4.3-1.8,5-3.4,2.9-7.6c-2.2-4.3-6.4-5.4-10.5-5.8c-9.1-0.8-17.9-1-27.1,2.3c-9.5,3.4-19.9,5-30.4,4.7
	c-4.7-0.1-8.4,3.1-8.6,6.7c-0.2,4.1,3.3,8.4,7.7,9.2c2,0.4,3.9,0.1,5.9-0.2c5.7-1.1,11.5-1.8,17.2-3c4.4-0.9,6,0.2,5.3,5
	c-1.6,9.9-2.7,19.8-3.2,29.8C553.9,311.1,552.2,336.1,551.7,360.2z M453.3,633.1c1.9,0,4.3-0.5,6.3-2.2c2.4-2,4.9-3.9,7.5-5.7
	c12.6-8.6,25.8-16.4,37.1-26.8c6.9-6.4,9.6-16.4,6-22.9c-6-10.7-14.1-19.2-25.9-23.6c-6.7-2.5-13.5-4.7-20.2-7.2
	c-7.1-2.7-7.4-3.9-2.8-9.7c7.5-9.7,16.1-18.6,24.8-27.2c2-2,3.3-4.2,4.1-6.7c1-3.3,0.2-6.3-2.7-7.8c-2.8-1.4-5.7-1.6-8.5,1.4
	c-10.1,11-20.5,21.7-30.8,32.6c-4.2,4.5-7.5,9.6-7.8,16.2c-0.2,3.1,0.4,5.8,2.9,7.5c7.8,5.1,16.2,8.9,25.3,11.4
	c8.2,2.3,16.4,4.9,22.5,11.9c6,6.9,6.5,9.9-0.8,15.8c-12.7,10.2-26.3,19.1-40.8,26.5c-4.3,2.2-4.7,6.5-4.1,10.2
	C446.1,630,448.2,633.3,453.3,633.1z M900.1,868.6c0.2,0,1.6-0.1,2.8-0.6c11-4.1,22.2-7.6,33.5-11c14.1-4.2,28-9.1,42.8-10.2
	c2.9-0.2,4.8-1.6,5.5-4.8c1.5-6.9-1.7-10.3-9.7-9c-10,1.6-19.7,4.7-29.5,7.3c-16,4.3-31.5,10.3-47.8,13.5c-3.7,0.7-6.6,2.4-6.1,7
	C892.3,866.2,894.3,868.4,900.1,868.6z M186.6,100.7c5.8-0.1,7.8-2.7,6.8-8.6c-0.9-5.4-1.6-10.8-2.5-16.2c-0.8-4.7-1.6-9.5-2.9-14.1
	c-1.2-4-6.4-6.7-10.3-6c-3.8,0.7-4.9,3.4-4.3,6.7c1.7,10.3,3.6,20.5,4.6,31C178.4,98.2,182.1,100.7,186.6,100.7z M1300.2,595
	c-0.1,8.1,4.2,13.6,10.6,13.7c8.9,0.1,13.5-4.4,13.4-13.4c0-6.2-5.3-11.6-11.3-11.7C1305,583.5,1300.2,587.7,1300.2,595z"/>
<path style="fill-rule:evenodd;clip-rule:evenodd;" d="M1236,806.8c5.2-0.4,8.6-3.6,11.7-6c11.8-9,22-0.5,24.6,11.8
	c1.8,8.4,1,16.9,1.8,25.4c1.2,12.8,2.5,25.5,6.6,37.7c4,12.1,12.4,18.1,25,18.1c2.8,0,5.6-0.6,8.5-0.5c3.7,0.1,7.5,0.6,8.9,4.9
	c1,3.1-2.1,7.7-5.9,9.3c-7.3,2.9-14.8,1.7-22.1,0.2c-20-4.1-29.1-18.4-32.9-36.3c-3.5-16.7-3.9-33.6-4.6-50.6c0-1.2-0.1-2.3-0.3-3.5
	c-0.7-3-2-4.3-5.2-2.4c-21,12.4-33.3,29.8-31.2,55.2c0.4,4.8-1,7.8-5.9,9.4c-4.1,1.3-6.8,0.3-9-3c-1.8-2.7-0.7-5.8-1-8.7
	c-0.3-3.2,1.5-7.6-1.3-9.4c-1.9-1.2-5.1,2.3-7.6,3.7c-13.8,7.7-25.5,4.5-33.1-9.3c-3.1-5.6-3.1-5.5-8.2-1.8
	c-4.4,3.2-8.5,6.9-13.5,9.3c-13.8,6.5-18.2,5.5-30.4-4.1c-2.5-2-4.2-4.6-5.7-7.5c-1.5-2.9-3.5-3.7-6.1-1
	c-4.8,4.9-10.1,9.1-15.6,13.1c-2.6,1.9-3.7,4.2-2.9,7.7c2.8,11.8,3.4,24,4.2,36.1c0.7,9.8-1,19.5-6.3,28.2
	c-4.6,7.5-19.3,11.5-27.3,7.4c-21-10.6-21.3-26.7-13.8-44.1c5.4-12.3,12.7-23.7,22.1-33.5c3-3.1,2.8-13.6-0.2-16.9
	c-1.4-1.6-2.7-0.9-4.4-0.2c-3.5,1.4-6.7,3.4-10.7,3.8c-9.1,0.8-15-4.1-20.3-10.5c-1-1.2-1.5-3-3.2-3.7c-4.8,7-6.5,8-11.1,5.9
	c-3.5-1.6-5.7-4.6-4.2-8.4c5.1-13.1,9.5-26.7,21.7-35.5c1.3-1,2.7-2.1,3.5-3.5c5.1-8,12.7-7.1,19.9-5.1c7.4,2.1,13,7.2,14.6,15
	c1.1,5.6,2,11.4,3.2,16.9c1.8,8.3,3.1,17,6.8,24.9c0.7,1.6,1.5,1.9,3,0.9c7.4-4.9,13.8-11,19.1-18c2.4-3.2,0.9-7.4,1.9-11.2
	c1.1-3.8,1.9-7.7,3-11.6c2.2-7.4,8.2-10.8,14.6-13c7.6-2.5,14.4,6.9,11.9,15.8c-2.2,7.8-6.5,14.6-11.9,20.5c-2.8,3-2.8,5.8-1.6,9
	c1.2,3.3,3,6.3,5.4,8.9c5,5.4,7.7,6,13.9,2.3c7.9-4.6,14.4-10.7,19.3-18.4c0.8-1.3,1.5-2.5,1.6-4.1c1.1-15.9,2.3-31.8,3.6-47.7
	c0.3-3.2-2-3.1-3.8-3.5c-7.1-1.5-14.6-1.4-21.4-4.3c-2.7-1.1-5.1-2.2-5.7-5.6c-1.2-6.8,6.1-8.8,10.9-6.7c6.2,2.7,12.6,2.5,18.8,4.2
	c2.8,0.8,4-0.4,4.6-3.5c2.7-16.2,5.1-32.5,11.9-47.7c2.1-4.8,5.5-8.7,8.1-13.1c2.2-3.6,5.9-1.6,8.6-0.8c3.3,1,5.3,3.5,5.2,7.5
	c-0.3,12.3-2.4,24.5-3.4,36.7c-0.6,7.5-0.7,15-2,22.4c-0.4,2.3,0.5,3.3,2.7,3.7c4.1,0.9,8,2.2,12.1,3.1c5.1,1.1,7.9,4.6,7,9.1
	c-0.7,3.5-5.6,5.7-10.2,4.4c-3.5-1-7-2.1-10.5-3.3c-3-1.1-4.8-0.4-5.4,2.8c-2.2,10.9-6,21.4-9.1,32.1c-1.1,3.9-2.8,7.5-4.4,11.1
	c-2.5,5.5,2.1,20.6,7.2,23.8c1.8,1.1,3.6,1,5.2,0.1c6.8-3.9,12.9-8.7,18.7-14.1c2.5-2.3,2.5-5.5,2.8-8.3c1.4-13.1,5.2-25.7,7.1-38.7
	c2.9-21,8.8-41.3,15.1-61.4c1.6-5,4.6-9.2,6.9-13.8c1-2,2.9-3.9,5.7-2.9c3.7,1.3,8,2,8.4,7.2c0.2,2.8,0.4,5.7,0.2,8.5
	c-1.8,19-3.3,38-8.9,56.4C1239.5,791.9,1237.9,799.2,1236,806.8z M1070.3,902.3c-0.6-6-1.3-14-2.1-21.9c-0.1-1.1-0.2-2.5-1.6-2.8
	c-1.2-0.3-1.8,0.8-2.3,1.5c-7.6,10.1-15.1,20.3-17.4,33.1c-1.2,6.6,0.4,12.1,6,16.2c4.4,3.2,8.8,2.7,11.9-1.8
	C1069.4,919.9,1069.6,912,1070.3,902.3z M1033.2,821.6c0.2,4.8,1.9,9.1,5.8,12.1c1.3,1.1,2.8,2.4,4.9,1.9c8.2-1.8,12.3-9.6,9.1-17.4
	c-0.4-0.9-0.8-1.8-1.1-2.8c-1.3-4-2.9-8.6-7.6-8.8c-5.3-0.2-7.9,4-9.7,8.7C1033.9,817.4,1033.3,819.4,1033.2,821.6z"/>
<path style="fill-rule:evenodd;clip-rule:evenodd;" d="M748.1,301c0.3-17.2,0-33,2-48.8c0.3-2.5,0.7-4.9,1.4-7.3
	c1.4-4.9,4.5-7.2,8.6-6.3c4.2,0.8,7.4,5.1,6.8,9.6c-0.9,7.3-2.3,14.5-2.4,21.8c-0.7,31.3-0.5,62.6,2.2,93.8c0.2,2,0.4,4,1,5.9
	c1.1,3.7,2,7.9-1.2,10.3c-3.3,2.5-7.7,2.7-11.7,0.3c-3.3-2-6.5-4.2-10.1-5.8c-3.3-1.5-4.8-5.3-5.9-8.9c-5.7-18-13.8-34.9-22-51.8
	c-5.2-10.6-10.7-21-16.1-31.5c-0.6-1.3-1.1-3.4-2.9-3c-1.8,0.4-1.4,2.4-1.3,3.9c2.1,19.4,1.2,38.9,2.3,58.3
	c0.6,10.8,2.2,21.5,3.9,32.1c0.2,1,0.4,2,0.5,3c0.9,6-0.4,9.3-4.3,9.6c-5.5,0.5-10.4-0.5-11.8-6.5c-1.5-6.1-2.6-12.4-3.5-18.6
	c-2.3-15.2-2.2-30.5-2.4-45.9c-0.2-16-0.7-32-2.4-47.8c-0.6-5.9-0.2-10.6,6.1-13.1c1.1-0.4,2.1-1.6,2.9-2.6c4.3-5.3,11.2-5,14.5,1.1
	c8.6,15.8,17.4,31.4,25.5,47.4c5.9,11.5,11.8,23.1,16.9,35c0.4,1,0.8,2.6,2.3,2.1c1.3-0.4,0.9-2,0.9-3.1
	C748.1,322.6,748.1,311.1,748.1,301z"/>
<path style="fill-rule:evenodd;clip-rule:evenodd;" d="M1119.6,260.9c-2.7,4.4-4,8.5-5.3,12.6c-4.9,15.3-12,29.9-15.6,45.7
	c-0.4,1.6-1,3.2-1.2,4.8c-0.5,3.9-2.2,6.8-6.4,7c-4.2,0.2-7.4-1.6-8.8-5.9c-2.2-6.7-3-13.6-4.2-20.5c-1.8-11.2-3.2-22.4-3.9-33.7
	c-0.1-1.1,0-2.4-1.6-3.1c-4.5,5.5-6.1,12.4-8.4,18.8c-6.4,18.4-13.4,36.5-20.2,54.8c-2.1,5.7-3.4,11.8-5.4,17.6
	c-1.9,5.5-4.5,7.1-8.7,5.9c-3-0.9-6.2-7.4-5.1-10.8c3.9-12,6.7-24.4,11.5-36.1c6.2-15.2,11.4-30.9,16.8-46.4
	c4.4-12.4,10.5-24.1,15.9-36c1.2-2.7,1.3-5.8,5.4-7c7.4-2.1,11.4,2.5,11.9,8.9c1.2,16.1,2.6,32.2,3.9,48.2c0.1,0.8,0.4,1.5,0.6,2.3
	c2.7-1,2.7-3.2,3.3-4.9c6.3-18.2,13.1-36.3,21-53.9c2-4.4,10.2-4.8,13.8-0.7c1.6,1.8,2.6,3.9,2.8,6.3c1.9,20.2,6.6,40,9.9,60
	c2.6,15.4,4.9,30.9,7,46.3c0.3,2.2,1.2,4.1,1.7,6.2c1.3,4.9-0.7,8.8-4.9,9.9c-4.9,1.3-10.6-1.5-11.4-6.2c-1.1-5.9-1.4-11.9-2.4-17.8
	c-4-23.4-6.2-47.2-11.3-70.5C1120.4,262.5,1120.1,262.1,1119.6,260.9z"/>
<path style="fill-rule:evenodd;clip-rule:evenodd;" d="M150.4,548.1c0.2-4.7-0.9-9.3-1.4-13.9c-0.5-4.2,0.4-7.6,5.3-8.6
	c4.4-1,9.4,1,10.9,4.7c2.7,7.3,2.8,15.2,5.2,22.7c4.6,14.5,10,28.5,17.8,41.6c0.6,1,0.7,3,2.5,2.5c1.4-0.4,0.8-2,1-3.1
	c5.9-30,9.5-60.4,15.8-90.3c1.4-6.6,3.7-8.8,9.4-7.7c5,0.9,8.9,6.8,7.2,11.8c-3.1,9.2-5,18.7-6.6,28.1c-3.9,22.2-8.3,44.4-11.3,66.8
	c-0.7,4.9-1.9,9.8-3.2,14.6c-0.9,3.3-2.2,6.4-6.3,6.8c-4.4,0.4-7.7-1.5-10.1-4.9c-7.4-10.6-13.5-22-19.3-33.6
	c-0.4-0.8-0.4-2.2-1.8-2c-1.3,0.1-1.1,1.4-1.4,2.3c-1.4,4-1.5,8.3-1.5,12.3c0,8.7-2.9,16.2-7.1,23.5c-1.6,2.7-3,5.6-4,8.6
	c-1.6,5-5.4,5.9-9.8,5.8c-3.9-0.1-9.3-4-9.3-7.6c0-7.8-3.9-14.1-6.9-20.6c-5.4-11.6-9.1-23.8-14.1-35.6
	c-6.2-14.7-11.9-29.5-17.9-44.3c-2.5-6.3-5-12.6-8.1-18.7c-1.5-2.9-5.4-7.2,0.1-10.2c4.8-2.6,10.7-0.3,12.8,4.8
	c3.5,8.2,6.5,16.7,10,24.9c10.6,24.7,20.1,49.9,30.1,74.9c0.9,2.1,1.7,5.8,4,5.6c2.5-0.2,2.7-4,3-6.3c1.1-7.6,2-15.2,2.6-22.8
	C148.8,569.7,149.6,558.9,150.4,548.1z"/>
<path style="fill-rule:evenodd;clip-rule:evenodd;" d="M410.8,541.5c0.6,6.9-2.5,12.1-7.8,16.2c-1.8,1.4-3.5,3.1-5.2,4.6
	c-4.8,4.4-4.8,4.7,1.8,6.4c11.6,3.1,18.1,11.1,21.7,22c3.5,10.7-2.1,18.7-8.3,26.2c-8.6,10.4-20,17.4-30.8,25.1
	c-7.5,5.4-14.8,11.2-20.5,18.7c-4.5,5.9-8,6.4-13.3,2.3c-5-3.9-5.5-8.8-1.2-14.2c0.8-1.1,1.9-1.9,1.7-3.4
	c-1.8-12.8,1.7-25.5,1.2-38.2c-0.5-13.8-1.2-27.6-2.4-41.3c-1.4-16.1-3.3-32.1-4.9-48.2c-0.4-3.6-2.2-7-1.9-10.7
	c0.5-6.4,3.7-9.2,9.7-7.5c12.6,3.7,25.8,4.7,38.5,7.7c8.5,2,14.3,5.6,16.6,14C407.5,528,411.1,534.3,410.8,541.5z M364.1,597.4
	c-0.1,0-0.3,0-0.4,0c1.1,9.6,2.3,19.1,3.3,28.7c0.4,3.4,1.3,4.5,4.5,1.9c3.7-3,7.8-5.5,11.9-8.2c7.5-5,15-9.9,19.7-17.9
	c2-3.4,3.7-6.4,1.4-10.6c-4.1-7.6-10.8-10.9-19.7-10.1c-4.9,0.4-9.1,1.2-12.1,5.7c-1.2,1.8-3.4,3.7-5.9,3.2c-3.4-0.6-3.2,1.1-3,3.3
	C364,594.8,364,596.1,364.1,597.4z M365.8,517.3c-8.7-0.7-9-0.7-8.4,5.9c1.1,14.2,2.6,28.4,3.9,42.6c0.3,3.2,1.6,3,3.9,1.4
	c8.6-6.2,16.4-13.4,24.3-20.5c7.9-7.2,4.9-21.4-5.2-25.5C377.7,518.6,370.7,518.2,365.8,517.3z"/>
<path style="fill-rule:evenodd;clip-rule:evenodd;" d="M229.5,79c-3.3,3.7-4.4,8-5.8,12.2c-5.8,18.2-11.4,36.5-17.2,54.7
	c-1.1,3.5-2.3,6.9-3.8,10.3c-1.7,3.9-6.3,5.8-9.9,4.3c-3.8-1.6-6.3-6.4-5-10.2c11-31.9,19.2-64.7,30.4-96.5
	c1.5-4.2,2.7-8.6,4.1-12.8c1.1-3.4,3.2-5.8,7.1-5.9c4.2-0.1,7.8,1.1,9.2,5.2c2.6,7.6,3.5,15.5,4.7,23.4c0.8,5,1.5,10.1,2.3,15.1
	c2.1,0.2,2.2-1.3,2.6-2.2c5.2-13.6,13.8-25,24.1-35.1c5.7-5.6,12.6-3.9,15.9,3.7c5.1,11.7,7.7,24.1,9.1,36.6c1.3,12,3,24.1,1.9,36.3
	c-1.1,12.9,3.9,24.9,6,37.3c0.3,1.8,0.7,3.6,1,5.4c1.1,5.5-0.6,9.1-4.6,9.9c-6,1.1-10.9-1.6-11.3-7.3c-1.1-12.6-6.2-24.6-6.6-37.3
	c-0.3-10.3,0.1-20.6-0.5-30.9c-0.6-9.8-0.9-19.6-3.6-29.1c-0.4-1.5-0.1-3.7-2-4.2c-1.8-0.4-3,1.3-3.9,2.6
	c-4.9,7.3-9.5,14.8-11.8,23.5c-2.6,10.1-5.3,20.3-8.5,30.2c-2.3,7.1-7.4,8.5-13.6,4.8c-2.7-1.6-3.1-4-3.3-6.7
	C235.5,103.6,231.9,91.5,229.5,79z"/>
<path style="fill-rule:evenodd;clip-rule:evenodd;" d="M1194.9,542.5c0.9-12.6,0.4-25.3,1.8-37.9c0.5-4.4-0.7-6.1-5.3-6.3
	c-7.5-0.5-9.6-3.1-9.4-10.5c0.2-5.4,3.6-8.6,9.1-8.1c16.5,1.4,32.8-1.2,49.2-2.1c15.9-0.8,31.6-3.2,47.6-2.9
	c5.3,0.1,10.9-0.3,16.3-1.8c7.5-2,14.4,2.6,14.3,9.3c0,4.8-3,8.2-8,8.4c-6.3,0.2-12.6-0.3-18.9-0.3c-19.3,0.2-38.5,2.3-57.8,3.9
	c-5,0.4-9.9,0.8-14.9,1.2c-2.9,0.2-4.3,1.6-4.7,4.7c-1.4,10.6-1.5,21.2-1.8,31.9c-0.1,3.1,1.2,4,4.1,4.1c16.7,0.8,33.2-1.3,49.8-2.2
	c8.1-0.4,12.4,1.8,13.5,8.8c0.9,5.4-1.8,9-7.3,8.7c-16.5-1-32.8,2.8-49.3,1.9c-1.1-0.1-2.3,0.2-3.5,0.4c-7.5,1.3-7.4,1.3-7.5,8.8
	c-0.1,5-0.4,10-0.8,14.9c-0.2,3.2,0.8,4.4,4.2,4.2c10.8-0.4,21.6,0,32.4,0.8c4.8,0.4,9.5,1.3,14.3,1.9c8.3,1,12.3,9.8,7.9,15.7
	c-3,4-7,3.1-10.4,1.9c-13.4-4.5-27.1-4.4-40.9-4c-5.4,0.2-10.4,2.1-15.7,2.7c-7,0.8-11-2.4-10.7-9.4c0.4-9.8,2.4-19.4,2.4-29.2
	C1194.8,555.5,1194.9,549,1194.9,542.5z"/>
<path style="fill-rule:evenodd;clip-rule:evenodd;" d="M924.7,598.2c0.3-5.5,0.8-16.2,1.5-26.8c0.1-2,0.1-3.6-1.7-5.3
	c-4.2-4-3.6-9.7,1-13.6c1.4-1.2,1.8-2.7,2-4.4c2.1-25.7,4.2-51.4,6.3-77.1c0.4-5.3,1-10.6,1.7-15.8c0.3-1.8,0.5-4.1,2.9-4.7
	c2.5-0.7,4.4,0.2,6.2,2.1c2.7,2.7,3.7,6,3.3,9.5c-2.5,25.3-5,50.6-6.7,76c-0.3,4.1-1,8.2-0.8,12.4c0.1,2.6,1.1,3.5,3.5,3.7
	c10,0.9,20,0.3,29.9,0.3c4.5,0,5.1-3.2,5.3-6.4c0.9-14.8,3.1-29.4,4.5-44.2c1.2-12.6,3.6-25,5-37.6c0.4-3.4,3.3-4.4,6.2-4.6
	c3.8-0.3,8,3.7,8.7,7.6c0.7,4.4-0.8,8.6-1.4,12.8c-4.2,30.6-8.2,61.3-9.9,92.2c-1,17.1-2.2,34.2-1.8,51.3c0.1,3.2,0.5,6.3,0.7,9.5
	c0.2,3.1,0.3,6-3,7.8c-3.4,1.9-7.2,2.4-10.5,0.6c-2.9-1.5-3.5-4.8-3.3-8.3c0.4-8.6,0.2-17.3,0.6-25.9c0.4-10.8,0.8-21.6,1.8-32.4
	c0.4-4.7-1.1-6.7-5.6-7.3c-6-0.9-12,0.2-17.9-0.4c-1.2-0.1-2.3-0.1-3.5-0.1c-9.9,0.1-10.3,0.1-10.7,10.3
	c-0.8,18.5-1.6,36.9,0.5,55.4c0.3,2.7,0,5.3-1.7,7.6c-2.2,2.8-5.1,3.9-8.4,2.8c-4.3-1.4-4.8-5.7-4.7-9
	C924.6,625.3,924.8,614.3,924.7,598.2z"/>
<path style="fill-rule:evenodd;clip-rule:evenodd;" d="M1102.7,592.2c-0.5-9.9-0.1-20.4-2-30.8c-1-5.4,1.8-11,1.6-16.7
	c-0.4-13.5,1.3-26.9,0.7-40.4c-0.3-7.1,4.2-10,11.1-8.1c8.6,2.4,17.5,0.9,26.3,1.1c8.8,0.2,17.2,1.7,25.3,4.9
	c8.9,3.4,14.4,11.4,13.3,19.5c-0.8,5.6-3.9,10.2-7,14.7c-6.7,9.7-14.5,18.3-25.4,23.3c-4.5,2.1-5.1,4.2-3.2,8.8
	c5.4,13.1,13.4,24.8,20,37.3c6,11.3,12.4,22.3,19.3,33.1c3.6,5.6,2.4,10-2.7,12.6c-5.3,2.7-11.7,1.1-13.9-4.5
	c-3.6-9-8.4-17.3-13.2-25.6c-6.5-11.4-12.9-22.9-19.1-34.4c-2.7-5-5-10.1-7.4-15.3c-1-2.1-2.3-4.1-4.8-3.5c-2.6,0.6-2.5,3.1-2.6,5.3
	c-0.5,10.2,1.5,20.2,1.3,30.4c-0.2,5.9-2.5,10.1-7.2,10.5c-6.9,0.5-10.8-2.8-10.6-10C1102.8,600.7,1102.3,596.7,1102.7,592.2z
	 M1139.7,512.6c-5.1,0.3-9.9,0.7-14.7,0.7c-3.6,0-4.9,1.5-4.9,5.1c-0.1,7.6-0.5,15.2-1,22.8c-0.7,10.1-0.8,10,9,7.9
	c15.5-3.3,25.5-13.4,32.8-26.8c1.5-2.8,0.7-4.7-2.2-6C1152.6,513.6,1146,512.9,1139.7,512.6z"/>
<path style="fill-rule:evenodd;clip-rule:evenodd;" d="M212.5,311.8c-1.1-18.6-1.2-40-4-61.1c-0.3-2.3-1.1-4.5-1.4-6.8
	c-0.5-3.5,0.1-6.6,3.6-8.6c3.2-1.9,6.4-1.6,8.6,1c3.3,4,6.7,2.8,10.6,1.5c15-5,30.3-8.4,46-10.1c4.1-0.5,8.2-1.5,12.2-2.3
	c7.4-1.5,13.2,1.1,17.1,7.3c7.2,11.3,7.5,23.2,1.9,35.2c-7.3,15.6-17,29.2-31.6,39.1c-7.5,5.1-14.3,11.4-21.4,17.1
	c-2.9,2.3-6,4-9.4,5.4c-5.1,2.2-8.3-0.2-11.3-3.6c-2.8-3.2-0.8-7,3.6-10.3c12-9.1,25.4-16.3,36.2-26.9
	c10.3-10.1,16.7-22.7,21.8-35.9c0.9-2.5,1-5.3,0.3-7.9c-0.8-2.9-2.5-4.8-5.7-4.6c-19.8,1.2-39.2,4.3-58.1,11
	c-6.4,2.3-6.2,5.6-6,10.8c1.1,27.3,4.2,54.4,5.6,81.6c0.5,10.5,1.4,20.9,3,31.3c0.6,3.6,0.5,7.3,0.4,11c-0.2,5.1-2.4,7.2-7.3,7.6
	c-3.8,0.3-8.1-2.5-8.6-6.6c-1.1-8.6-1.6-17.2-2.6-25.8C214.3,345.7,212.6,330.1,212.5,311.8z"/>
<path style="fill-rule:evenodd;clip-rule:evenodd;" d="M742,570.7c0,2.3-0.1,4.7,0,7c0.3,7,0.3,7.1,7.6,5.9
	c12-1.9,23.9-3.3,36.1-3.7c6.3-0.2,11.2-0.7,15,4.9c2.4,3.5,1.7,7.2-0.3,10.3c-1.8,2.9-5.2,4.7-8.6,3.5c-9.9-3.6-19.8-1-29.6,0
	c-9.4,0.9-18.6,3.2-27.6,5.9c-4.8,1.4-11.3-3.9-10.7-8.9c2.3-18.9,1-37.9,2.1-56.8c0.9-17.2,0.3-34.6,2.5-51.8
	c0.9-6.9,5.4-9.8,12.3-7.8c13.3,3.9,26.9,3.1,40.4,1.6c4.2-0.5,8.2-1,11.4,2.6c2.2,2.5,3.8,5.3,2.5,8.6c-1.3,3.2-3.6,5.4-7.6,5.4
	c-12.5-0.1-24.9,1.9-37.3,0.5c-3.3-0.4-4.4,0.9-5.1,3.8c-2.4,11-1.7,22.2-2.5,33.2c-0.2,2.9,1.8,3,4,2.9c11.6-0.6,23.2-1,34.8-1.6
	c12.7-0.8,25.5-0.7,38.2-2.5c5-0.7,9.8,3.8,9.8,8.6c0,5.6-4.8,11-10,9.9c-9.5-2-18.8,0-28.1,0.2c-14.1,0.3-28.2,1.6-42.3,2.5
	c-6.7,0.4-6.7,0.5-6.9,7.3c-0.1,2.8,0,5.7,0,8.5C742.1,570.7,742,570.7,742,570.7z"/>
<path style="fill-rule:evenodd;clip-rule:evenodd;" d="M896.9,323.1c0-5.5,0-11,0-16.5c0-2.7-0.7-3.9-3.8-3.5
	c-4.4,0.6-9,0.7-13.4,0.8c-4.5,0.1-7.6-2.2-9.1-6.4c-1.4-3.8,0-6.8,3.3-9.1c1.9-1.4,4.1-1.2,6.2-1.1c7.8,0.3,15.6,0,23.3-1.5
	c7.5-1.5,11.9,2.4,11.3,10.1c-1.6,20.1-0.1,40.2,1.5,60.2c0.1,0.8,0.3,1.6,0.5,2.4c1.6,6.1,0.6,9.8-3,11.3c-5,2.2-11.1,0.4-13.4-5.1
	c-1.6-3.9-3.3-3.8-6.7-2.8c-17.8,5-35.3,3.3-52.4-3c-12.9-4.7-18.3-15.7-20.8-28.4c-3.8-19.4,0.2-38.4,4.2-57.3
	c2.1-9.9,4.5-19.8,8.5-29.2c4.4-10.3,13.5-14.1,22.8-17.8c2-0.8,4.1-1.4,6.2-1.8c4.7-0.9,8.1,1.2,9.4,5.3c1.2,3.9-0.4,6.3-4,7.1
	c-12.7,2.9-19.7,11-23.2,23.4c-5,17.7-8.7,35.6-9.5,53.9c-0.3,6.5,0.7,13,2.7,19.2c2,6.3,6.5,10.5,12.7,12.5c12.8,4,25.8,4.9,38.8,1
	c8-2.4,9.3-4.2,8.8-12.5c-0.2-3.8-0.4-7.7-0.6-11.5C897.2,323.1,897,323.1,896.9,323.1z"/>
<path style="fill-rule:evenodd;clip-rule:evenodd;" d="M305.9,623c5.3,0,10.6,0.1,15.9,0c5.1-0.2,8.9,3.1,9.5,8.5
	c0.5,4.8-2,7.4-7.8,8.3c-7.8,1.2-15.6-0.6-23.3-0.9c-10.8-0.4-21.5-1.4-32.3-2.3c-2.4-0.2-4.2,0.8-6.1,1.5
	c-8.3,3.2-14.2-0.9-14.4-9.7c-0.4-17.3-1.6-34.6-1.2-51.9c0.4-14.8-0.9-29.5-0.2-44.3c0.2-5.8-3.1-10.9-2.6-16.7
	c0.3-3.3,0.4-7.1,3.5-8.2c2.8-1,6.4-1.3,9.3,1.3c3.3,3,7.4,2.2,11.4,2c10.7-0.4,20.8-3.6,31.2-5.7c5.2-1,8.8,2,9.8,7.4
	c0.7,3.8-2.5,8.4-7.2,8.5c-10.2,0.3-19.7,4.3-29.9,4.8c-11.3,0.5-11.3,1.1-10.9,12.5c0.3,8.1,0.7,16.3,0.8,24.4
	c0,3.5,1.4,4.8,4.8,4.8c13.5,0.1,26.9,1,40.3,2.1c4.6,0.4,7.3,3,9.6,6.2c1.5,2,0.8,4.8-0.5,6.6c-1.8,2.4-4.3,3.8-7.8,3.2
	c-13.3-2.4-26.8-2.5-40.3-2.5c-4.6,0-6.4,1.6-6.2,6.1c0.5,8.6,0.8,17.3,1.3,25.9c0.2,3.6,1.6,5.7,5.7,6.1
	C280.7,621.9,293.3,623.6,305.9,623z"/>
<path style="fill-rule:evenodd;clip-rule:evenodd;" d="M43.9,63c-6,0-12,0-18,0c-1.2,0-2.3-0.1-3.5-0.3c-3.8-0.7-6.1-3.4-6-6.8
	c0.1-3.4,3.4-4.7,6.6-4.7c11.1-0.2,22.3-0.8,33.4-0.3c20.9,0.9,41.9,0,62.8,0.8c5.5,0.2,11,0.2,16.5,0.4c4.1,0.2,6.9,2,7.9,6.2
	c1,4.3-1.6,7.5-6.1,7.4c-14.3-0.4-28.5-0.8-42.8-1.2c-6.6-0.2-7.5,1.2-6.3,7.7c2.2,11.7,0.8,23.5,1.1,35.3
	c0.5,18.4,1.5,36.9,2.1,55.3c0.1,3,0.8,4.4,4,3.8c11.1-2,22.3-3,33.5-4c7-0.6,9.8,0.2,10.6,5.5c0.8,4.7-3.8,9.9-9.2,10.4
	c-12.1,1.2-24.1,2.3-36.2,4.1c-13.7,2-26.8,6.7-40.4,8.7c-5.3,0.8-10.8,3.7-16.3-0.2c-2.5-1.8-5.3-3.4-4.7-6.8
	c0.6-3.7,4-5.8,7.3-5.7c12.2,0.3,22.9-5.3,34.5-7.5c3.2-0.6,3.2-3.2,3.1-5.4c-1.1-18.4-1.1-36.9-1.3-55.3
	c-0.2-14.1-0.4-28.2-0.1-42.3c0.1-3.3-1.4-3.9-4.1-4C62.8,63.5,53.3,63,43.9,63z"/>
<path style="fill-rule:evenodd;clip-rule:evenodd;" d="M1048.3,528c5.6,0.2,11.2,1.5,16.8-0.6c3.5-1.3,9.6,4,10.3,8.3
	c0.9,5.2-1.9,9.9-7,10.1c-7.1,0.3-14.3-0.3-21.4-0.6c-4.3-0.2-8.6-0.3-12.9-0.6c-3.8-0.3-5.9,1-6.2,5.2c-0.4,7.8-1,15.6-1.7,23.4
	c-0.3,3.7,1.9,3.5,4.5,3.2c12.6-1.5,25.2-2.3,37.8-1.9c4.3,0.1,8.2,1,11.2,4.5c2.4,2.8,2.4,5.8,1.1,8.9c-1.2,2.8-3.6,4.4-6.8,3.8
	c-15.5-3-30.8,0.1-46,2.1c-2.9,0.4-5.8,1.6-8.7,2c-6.4,0.9-10.2-2.4-10.8-8.9c-0.1-1.3,0-2.7,0.2-4c4-20.1,4.1-40.7,6.8-60.9
	c1.9-14.3,4.1-28.7,6.4-42.9c0.8-5.1,6.2-7.3,13.4-6.1c11.9,1.9,23.8,2,35.8,1.2c5.9-0.4,11.8,0,17.8-1c7.2-1.2,12.6,7.2,9.6,13.3
	c-2.1,4.2-6.2,3.9-9.6,3.7c-15.6-0.9-31.2,0.7-46.8-0.5c-5.1-0.4-7.5,0.6-7.9,6.9c-0.6,9.1-2.1,18.1-3.5,27.2
	c-0.5,3.3,0.7,4.6,3.9,4.6C1039,527.9,1043.6,528,1048.3,528z"/>
<path style="fill-rule:evenodd;clip-rule:evenodd;" d="M324.8,269.2c0-2.5-0.1-6.7,0-10.9c0.2-5.3,5.9-8.4,10-5.1
	c3,2.4,5.4,5,4.9,10c-1.3,15,1.4,29.9,2.9,44.7c1.1,10.8,3.5,21.3,6.1,31.8c2,8.1,5.3,15.7,9.9,22.8c2.3,3.5,4,3.5,6.9,0.6
	c6.3-6.3,10.1-13.4,11.6-22.5c2.5-15.5,4.1-30.9,5.6-46.5c1-10.5,4-20.9,6-31.3c1.4-7.4,2.1-14.8,2.1-22.3c0-7.1,2.4-10,8.2-9.9
	c5.4,0.1,9.9,5.5,9.4,11.3c-1.4,16.1-4.1,32-7.8,47.7c-1.7,7.3-2.5,14.7-3.1,22.2c-1,14.8-3.6,29.6-7.8,43.6
	c-3.3,11.2-11.2,21.2-22.8,26.3c-5.6,2.5-12.3-0.2-17.4-7c-7.6-10-13-21.3-15.9-33.6C328.4,318,326.5,294.4,324.8,269.2z"/>
<path style="fill-rule:evenodd;clip-rule:evenodd;" d="M589,611.5c-10.5,1.2-23.2,2.5-35.9,4c-8.6,1-17.1,2.3-25.7,3.1
	c-5.1,0.5-9.6-4-9.7-9.1c-0.1-3.9,4.2-7.7,8.9-7.5c9.1,0.5,17.8-2.2,26.7-2.8c4.6-0.3,4.5-3.8,4.3-7c-1-12.9-2.1-25.8-3.1-38.7
	c-1.2-14.9-2.7-29.8-2.9-44.8c-0.1-6-1-6.8-7.1-6.3c-4,0.3-7.9,0.8-11.9,1.4c-4.5,0.7-8.6-1.9-9.1-6.1c-0.9-6.4,1.4-9.7,7-10.1
	c5.6-0.4,11.8,0.5,16.8-1.5c7-2.9,13.7-2.7,20.9-2.5c4,0.1,8.1-1.7,12.2-2.4c5.1-0.8,8.6,1.8,9.2,6.5c0.8,6.4-1.4,9.6-7.1,10.3
	c-3.3,0.4-6.6,0.9-9.9,0.9c-5,0.1-6.2,3-6,7.2c0.4,9.6,0.6,19.3,1.3,28.9c1.4,18.4,3.1,36.8,4.7,55.2c0.6,6.7,1,7.2,7.5,6.3
	c6.2-0.9,12.6-0.4,18.4-3.8c3-1.8,5.5-0.6,6.3,3.1C606.5,604.7,606.3,613.2,589,611.5z"/>
<path style="fill-rule:evenodd;clip-rule:evenodd;" d="M658,235c-2.2-0.4-5.3-0.9-8.5-1.3c-3.5-0.4-5.7,0.6-5.6,4.8
	c0.2,15.1,0.1,30.2,0.2,45.4c0.2,22.1,0.5,44.2,0.7,66.3c0.1,7,0.2,7.2,7.4,8c2.1,0.2,4.3,0.8,6.4,1c3.8,0.4,5.6,2.9,6.3,6.2
	c0.7,3.1-0.6,6.2-3.1,7.9c-3.1,2.1-6.8,3.6-10.8,2.4c-9.1-2.9-18.4-2.4-27.7-2.2c-3.8,0.1-7.6,0-11.2-1.7c-3-1.5-4.5-4-4.3-7.2
	c0.2-3.6,2.7-5.6,6.1-6.3c0.8-0.2,1.7,0,2.5,0c12.3-0.5,11.1,1.1,11-11.2c-0.2-28.4,0.7-56.9,0.9-85.3c0-9-0.8-17.9-1-26.9
	c-0.1-2.7-1.1-3.9-3.6-4.3c-2.3-0.4-4.5-1.2-6.1-3.1c-2.1-2.5-4-4.9-2.4-8.5c1.9-4.1,5.9-6,9.4-4.7c12.5,4.7,25.6,3.6,38.3,5
	c5.3,0.6,9.6,5,8.3,9c-1.6,4.6-6.2,5.4-10.3,6.7C660.3,235.2,659.6,235,658,235z"/>
<path style="fill-rule:evenodd;clip-rule:evenodd;" d="M1192.2,381.7c-1.1-10.9-2-21.9-3.5-32.7c-1.9-13.7-2.3-27.5-1.2-41.3
	c0.6-7.7-2.8-14-6.2-20.1c-7.9-14.5-12.7-29.9-16.1-45.8c-0.1-0.3-0.2-0.7-0.1-1c0.7-3.6-1.5-8.7,4.2-9.8c5.7-1.2,10.8,2.4,11.7,8.1
	c1.9,10.7,4.4,21.1,8.8,31.1c0.3,0.8,0.6,1.5,1,2.3c1.5,2.9,2.9,3.3,4.4-0.1c6.6-14.4,15.2-27.6,22.2-41.8c0.4-0.7,0.7-1.5,1.1-2.2
	c3-4.9,6.6-6.3,10.7-4c3.5,2,4.8,7.9,2.6,11.9c-7.9,14.3-15.7,28.6-21.9,43.7c-6.2,15.2-7.7,31.3-6.8,47.5
	c1.1,19.4,2.5,38.8,6.7,57.9c0.9,4-0.5,7.4-4.4,9c-4.5,1.9-9.7-0.2-12-4.4C1192.2,387.4,1192.2,384.6,1192.2,381.7z"/>
<path style="fill-rule:evenodd;clip-rule:evenodd;" d="M468.6,352.4c1.4-15.9,2.4-31.8,5.3-47.6c2.7-15,4.8-30.2,5.8-45.5
	c0.5-7.3,1.7-14.5,2.6-21.8c0.5-3.7-0.1-5.2-4.5-4c-13,3.5-26.1,6.5-38.7,11.4c-4.8,1.9-11.6-3.2-11.2-8.1c0.2-2.7,1.1-4.8,4.4-5.9
	c15.8-5,32.1-8.8,48-13.6c9.9-3,20.1-3.8,30-6.5c6.9-1.9,10.6,1,11.5,7.6c0.6,4.1-1.1,6-4.8,6.7c-3.8,0.7-7.5,1.4-11.3,1.8
	c-4.5,0.5-6,3.1-6.8,7.2c-3,15.4-3.5,31.1-5.2,46.6c-2.2,19.5-4.8,38.9-7.1,58.4c-0.8,6.8-0.7,13.6-0.7,20.4c0.1,9-5.9,13-13.2,9.1
	c-3.5-1.9-4.4-5.2-4.6-8.8C468.2,357.4,468.5,354.9,468.6,352.4z"/>
<path style="fill-rule:evenodd;clip-rule:evenodd;" d="M667.1,562.4c0,8.5,0.2,17-0.1,25.5c-0.2,4.4,1.2,8.5,1,12.9
	c-0.2,5-4,7.8-11,7.9c-3.3,0-6.6-3.4-6.6-7.5c0-15.5-0.1-31,0.2-46.5c0.3-15.6,1-31.2,1.5-46.8c0.2-5,1.8-9.8,1.6-14.8
	c-0.1-2.5-0.5-3.6-3.3-3.5c-9.6,0.3-19.3,0.5-28.8,1.5c-5.3,0.6-9.4-1.4-11-5.7c-2.4-6.8,1.2-11.8,8.7-11.7
	c12.3,0,24.6,0.8,36.8-0.1c13.9-1,27.9-0.3,41.8-1.1c4.1-0.2,7.5,1.1,8.9,4.9c1.4,3.7,0.9,7.8-2.1,10.6c-2.9,2.7-6.6,4-10.5,2
	c-6.1-3-12.4-1-18.7-1c-1.6,0-1.9,1.5-2.5,2.7c-4.1,8.7-4,18.1-4.7,27.3C667.2,533.5,667.3,548,667.1,562.4z"/>
<path style="fill-rule:evenodd;clip-rule:evenodd;" d="M551.7,360.2c0.5-24.1,2.2-49.2,3.6-74.2c0.6-10,1.7-19.9,3.2-29.8
	c0.8-4.8-0.8-5.9-5.3-5c-5.7,1.2-11.5,1.9-17.2,3c-2,0.4-4,0.6-5.9,0.2c-4.3-0.8-7.9-5.1-7.7-9.2c0.2-3.6,3.9-6.8,8.6-6.7
	c10.4,0.2,20.8-1.4,30.4-4.7c9.2-3.2,18-3,27.1-2.3c4,0.3,8.3,1.5,10.5,5.8c2.1,4.2,1.4,5.8-2.9,7.6c-4.3,1.8-8.9,1.4-13.3,1.6
	c-5,0.2-7,2.8-7.7,7.3c-2.3,13.6-3.4,27.3-3.9,41.1c-0.6,17.4-1.6,34.9-2.2,52.3c-0.2,7.3,0.2,14.6,0.1,21.9c0,8.4-2.5,11.2-9.3,11
	c-4.4-0.1-6.6-2.8-7.6-6.6C551.3,369.6,551.3,365.4,551.7,360.2z"/>
<path style="fill-rule:evenodd;clip-rule:evenodd;" d="M453.3,633.1c-5.1,0.3-7.2-3-7.8-6.3c-0.7-3.7-0.3-8.1,4.1-10.2
	c14.6-7.4,28.1-16.3,40.8-26.5c7.3-5.9,6.8-9,0.8-15.8c-6.1-7-14.2-9.6-22.5-11.9c-9.1-2.5-17.4-6.3-25.3-11.4
	c-2.5-1.6-3.1-4.4-2.9-7.5c0.3-6.6,3.6-11.7,7.8-16.2c10.2-10.9,20.7-21.6,30.8-32.6c2.8-3,5.7-2.8,8.5-1.4c2.9,1.5,3.7,4.5,2.7,7.8
	c-0.8,2.6-2.1,4.8-4.1,6.7c-8.7,8.6-17.3,17.5-24.8,27.2c-4.5,5.9-4.3,7.1,2.8,9.7c6.7,2.5,13.5,4.7,20.2,7.2
	c11.8,4.4,19.9,12.9,25.9,23.6c3.7,6.5,0.9,16.6-6,22.9c-11.3,10.4-24.5,18.2-37.1,26.8c-2.6,1.8-5.1,3.7-7.5,5.7
	C457.5,632.6,455.2,633.1,453.3,633.1z"/>
<path style="fill-rule:evenodd;clip-rule:evenodd;" d="M900.1,868.6c-5.8-0.2-7.8-2.4-8.3-7.7c-0.5-4.6,2.3-6.3,6.1-7
	c16.3-3.1,31.8-9.2,47.8-13.5c9.8-2.6,19.5-5.7,29.5-7.3c8-1.3,11.2,2.1,9.7,9c-0.7,3.2-2.6,4.6-5.5,4.8c-14.8,1.1-28.7,6-42.8,10.2
	c-11.3,3.4-22.5,6.8-33.5,11C901.7,868.5,900.3,868.6,900.1,868.6z"/>
<path style="fill-rule:evenodd;clip-rule:evenodd;" d="M186.6,100.7c-4.5,0.1-8.2-2.5-8.7-7.2c-1-10.4-2.9-20.7-4.6-31
	c-0.5-3.2,0.5-5.9,4.3-6.7c3.9-0.7,9.1,2,10.3,6c1.3,4.6,2.1,9.4,2.9,14.1c0.9,5.4,1.6,10.8,2.5,16.2
	C194.5,97.9,192.4,100.6,186.6,100.7z"/>
<path style="fill-rule:evenodd;clip-rule:evenodd;fill:#3FC186;" d="M1300.2,595c0-7.2,4.8-11.5,12.7-11.4c6,0.1,11.2,5.5,11.3,11.7
	c0.1,9-4.5,13.5-13.4,13.4C1304.4,608.6,1300.1,603.1,1300.2,595z"/>
<path style="fill-rule:evenodd;clip-rule:evenodd;fill:none;" d="M1070.3,902.3c-0.7,9.7-0.9,17.6-5.5,24.4c-3,4.5-7.4,5-11.9,1.8
	c-5.7-4.1-7.3-9.6-6-16.2c2.4-12.8,9.9-23,17.4-33.1c0.6-0.8,1.2-1.8,2.3-1.5c1.4,0.4,1.5,1.8,1.6,2.8
	C1069.1,888.3,1069.8,896.3,1070.3,902.3z"/>
<path style="fill-rule:evenodd;clip-rule:evenodd;fill:none;" d="M1033.2,821.6c0-2.2,0.6-4.2,1.4-6.3c1.8-4.6,4.4-8.9,9.7-8.7
	c4.7,0.2,6.3,4.8,7.6,8.8c0.3,0.9,0.7,1.9,1.1,2.8c3.2,7.8-0.9,15.6-9.1,17.4c-2.1,0.5-3.6-0.9-4.9-1.9
	C1035.2,830.7,1033.5,826.5,1033.2,821.6z"/>
<path style="fill-rule:evenodd;clip-rule:evenodd;fill:none;" d="M364.1,597.4c-0.1-1.3-0.1-2.7-0.2-4c-0.2-2.2-0.4-4,3-3.3
	c2.5,0.5,4.7-1.4,5.9-3.2c3-4.5,7.2-5.2,12.1-5.7c8.9-0.8,15.6,2.6,19.7,10.1c2.2,4.1,0.6,7.2-1.4,10.6c-4.8,8-12.2,12.9-19.7,17.9
	c-4,2.7-8.1,5.2-11.9,8.2c-3.2,2.6-4.1,1.5-4.5-1.9c-1.1-9.6-2.2-19.1-3.3-28.7C363.8,597.5,364,597.4,364.1,597.4z"/>
<path style="fill-rule:evenodd;clip-rule:evenodd;fill:none;" d="M365.8,517.3c4.9,0.8,11.9,1.3,18.5,4c10.1,4.1,13.1,18.3,5.2,25.5
	c-7.9,7.1-15.6,14.3-24.3,20.5c-2.2,1.6-3.6,1.8-3.9-1.4c-1.3-14.2-2.8-28.4-3.9-42.6C356.9,516.7,357.2,516.6,365.8,517.3z"/>
<path style="fill-rule:evenodd;clip-rule:evenodd;fill:none;" d="M1139.7,512.6c6.3,0.3,12.9,1,19,3.8c2.8,1.3,3.7,3.2,2.2,6
	c-7.3,13.3-17.2,23.4-32.8,26.8c-9.8,2.1-9.7,2.2-9-7.9c0.5-7.6,0.9-15.2,1-22.8c0-3.6,1.3-5.1,4.9-5.1
	C1129.8,513.3,1134.6,512.9,1139.7,512.6z"/>
</svg>
