<svg width="940px" height="225px" viewBox="0 0 940 225" version="1.1"
  xmlns="http://www.w3.org/2000/svg" xmlns:xlink="http://www.w3.org/1999/xlink" xmlns:sketch="http://www.bohemiancoding.com/sketch/ns">
  <title>TCGS</title>
  <desc>The Chris Gethard Show logo</desc>
  <defs></defs>
  <g id="Page-1" stroke="none" stroke-width="1" fill="none" fill-rule="evenodd" sketch:type="MSPage">
    <g id="icon-tcgs" sketch:type="MSLayerGroup" transform="translate(0.000000, 1.000000)">
      <path d="M939.973982,206.944959 C939.973982,215.748075 932.833339,222.885034 924.027554,222.885034 L732.722446,222.885034 C723.914982,222.885034 716.776018,215.748075 716.776018,206.944959 L716.776018,15.6573483 C716.776018,6.85423221 723.914982,-0.282726592 732.722446,-0.282726592 L924.027554,-0.282726592 C932.833339,-0.282726592 939.973982,6.85423221 939.973982,15.6573483 L939.973982,206.944959" id="Fill-1" fill="#48A605" sketch:type="MSShapeGroup"></path>
      <path d="M890.101946,142.41618 C890.150625,149.469243 890.480464,156.510562 888.712089,163.478891 C885.360821,176.690697 877.856768,186.862142 865.915411,193.176929 C844.333179,204.587506 821.872214,204.572404 799.093161,196.963955 C797.213161,196.052854 799.093161,196.963955 797.213161,196.052854 C794.346161,195.843116 792.077571,194.260015 789.756107,192.801079 C788.438429,191.660105 787.351554,191.180225 785.364964,190.086232 C772.048018,182.253783 763.146554,168.695491 767.076089,154.363685 C768.847821,147.898727 772.524732,142.994217 779.578089,141.525213 C782.49125,141.420345 785.525268,140.082217 788.205946,142.363326 C787.948286,141.338127 788.419964,141.153558 789.289464,141.424539 C793.319714,143.061333 797.235821,144.875146 800.026446,148.417199 C800.496446,150.314906 801.471696,151.939116 802.730625,153.40812 C804.424304,157.582742 803.841839,161.79176 802.409179,165.801948 C801.629482,167.982382 801.794821,169.187116 803.87625,170.186307 C818.098786,177.015371 832.78125,178.554846 847.375589,172.198951 C862.875518,165.448749 864.718589,146.613453 851.384857,136.282607 C845.367179,131.620554 838.379286,128.883895 831.340196,126.27979 C820.334643,122.207521 809.291321,118.267805 798.898446,112.692974 C780.719518,102.943521 771.590607,87.997603 773.193643,67.303191 C774.786607,46.7354607 786.028839,32.6142322 805.038661,25.6693933 C828.235679,17.1917903 851.094464,19.264 872.311607,32.2820075 C882.749804,38.6865618 889.396946,47.9645243 888.513179,61.0538427 C888.019679,68.3753708 884.959643,74.3277303 877.825714,77.0081798 C870.591911,79.727221 863.487357,78.8496779 857.545214,73.5978427 C851.911089,68.6178277 850.583339,62.0966592 852.480125,55.0167491 C853.070143,52.8161798 852.937536,51.7247041 850.726018,50.8622622 C839.387268,46.4351161 827.86975,45.2798801 816.362304,49.7464569 C801.726,55.4278352 798.921107,73.3310562 810.917018,83.4303521 C816.296839,87.9590112 822.690518,90.6872809 829.173161,93.184839 C839.461125,97.1505618 849.921143,100.664929 859.870875,105.497288 C875.430393,113.054562 886.916857,123.899685 890.009625,141.763476 C890.306732,141.870022 890.418357,142.001738 890.347857,142.159461 C890.270643,142.329768 890.188393,142.41618 890.101946,142.41618" id="Fill-2" fill="#FEFEFE" sketch:type="MSShapeGroup"></path>
      <path d="M789.289464,141.424539 C788.894161,141.917843 788.498857,142.411985 788.104393,142.905288 C785.609196,140.302861 782.3385,142.490846 779.578089,141.525213 C782.800946,140.267625 786.040589,140.336419 789.289464,141.424539" id="Fill-3" fill="#F7FAF4" sketch:type="MSShapeGroup"></path>
      <path d="M802.730625,153.40812 C801.041143,152.171506 798.413339,151.444135 800.026446,148.417199 C801.829232,149.592569 802.545982,151.356045 802.730625,153.40812" id="Fill-4" fill="#F7FAF4" sketch:type="MSShapeGroup"></path>
      <path d="M890.101946,142.41618 C889.875339,142.224899 889.845964,142.008449 890.009625,141.763476 C890.101946,140.841468 890.19175,139.9203 890.347857,138.353139 C891.139304,140.222322 891.276946,141.376719 890.101946,142.41618" id="Fill-5" fill="#39A403" sketch:type="MSShapeGroup"></path>
      <path d="M223.223143,207.072479 C223.223143,215.875596 216.083339,223.012554 207.276714,223.012554 L15.9732857,223.012554 C7.16582143,223.012554 0.0268571429,215.875596 0.0268571429,207.072479 L0.0268571429,15.7848689 C0.0268571429,6.98175281 7.16582143,-0.155205993 15.9732857,-0.155205993 L207.276714,-0.155205993 C216.083339,-0.155205993 223.223143,6.98175281 223.223143,15.7848689 L223.223143,207.072479" id="Fill-6" fill="#5674D5" sketch:type="MSShapeGroup"></path>
      <path d="M149.09575,173.053004 C149.021054,181.968539 148.945518,190.045124 148.870821,198.960659 C147.749536,200.158682 146.262321,199.875116 144.885054,199.875955 C122.999839,199.899446 101.114625,199.901124 79.2285714,199.876794 C77.8504643,199.875116 76.3531786,200.132674 75.3275714,198.789513 C75.3074286,191.019146 75.4047857,183.244584 75.205875,175.477573 C75.1311786,172.573124 76.2180536,171.878472 78.8978929,171.969918 C83.9806071,172.146936 89.07675,171.906157 94.1611429,172.067236 C96.6194107,172.145258 97.2925179,171.250936 97.2883214,168.894322 C97.2337679,130.177558 97.2505536,91.460794 97.2379643,52.7423521 C97.237125,51.9487041 97.4880714,51.0099176 96.4708571,50.5451386 C96.1611607,50.848 95.8833571,50.8379326 95.6416429,50.4612434 C85.7254821,50.4587266 75.8101607,50.4570487 65.8931607,50.4553708 C64.9271429,58.0000599 65.7571964,65.579985 65.4307143,73.1355805 C65.3660893,74.608779 66.0710893,76.2254382 64.8398571,77.555176 C56.3714643,77.6172584 47.9013929,77.6164195 39.4338393,77.780015 C37.0595,77.8269963 36.2403571,77.0761348 36.2596607,74.6473708 C36.3922679,57.8532434 36.4015,41.0591161 36.4510179,24.2658277 C37.835,22.8689738 39.621,23.2532135 41.2769107,23.2532135 C88.407,23.2314007 135.539607,23.2314007 182.670536,23.2532135 C184.571518,23.2548914 186.603429,22.9092434 188.174571,24.484794 C188.200589,26.0502772 188.226607,27.6149213 188.251786,29.1787266 C189.084357,31.5084944 188.626107,33.9204794 188.636179,36.287161 C188.691571,48.6952509 188.6815,61.1041798 188.6345,73.5131086 C188.629464,74.8604644 189.172482,76.3420524 188.078054,77.5618876 C179.485446,77.6222921 170.892,77.6298427 162.301071,77.7749813 C160.016536,77.813573 159.441625,76.8655581 159.469321,74.7522397 C159.564161,67.7109213 159.462607,60.6670861 159.530589,53.6257678 C159.550732,51.5510412 159.399661,50.1734831 156.672821,50.2364045 C148.225411,50.4310412 139.772964,50.3941273 131.322196,50.4486592 C131.067054,50.6944719 130.785054,50.9016929 130.472,51.072 C130.142161,51.2121049 129.806446,51.331236 129.466536,51.4528839 C129.128304,51.6139625 128.832036,51.8228614 128.578571,52.1148165 C128.422464,52.53597 128.328464,52.9437004 128.299089,53.3917004 C128.233625,90.9121199 128.282304,128.412404 128.2865,165.910172 C128.287339,170.480779 129.197964,172.219925 133.727589,172.282846 C137.832536,172.339056 141.938321,172.248449 146.042429,172.325633 C147.068875,172.346607 148.345429,171.721588 149.09575,173.053004" id="Fill-7" fill="#FEFEFE" sketch:type="MSShapeGroup"></path>
      <path d="M462.140089,207.072479 C462.140089,215.875596 455.000286,223.012554 446.193661,223.012554 L254.889393,223.012554 C246.081929,223.012554 238.942964,215.875596 238.942964,207.072479 L238.942964,15.7848689 C238.942964,6.98175281 246.081929,-0.155205993 254.889393,-0.155205993 L446.193661,-0.155205993 C455.000286,-0.155205993 462.140089,6.98175281 462.140089,15.7848689 L462.140089,207.072479" id="Fill-8" fill="#E0754F" sketch:type="MSShapeGroup"></path>
      <path d="M316.138786,155.761378 C316.445964,156.089408 316.753982,156.414921 317.062,156.742951 C317.267625,157.580225 318.08425,157.797513 318.629786,158.289978 C318.969696,158.614652 322.402375,161.509873 323.835875,162.561918 C342.300161,175.35173 362.265089,177.84006 383.469643,171.003446 C392.898179,167.963925 400.728714,162.158382 408.173179,155.807521 C410.719571,157.275685 411.769518,153.851086 413.929,154.049079 C414.790107,154.930816 415.651214,155.812554 416.513161,156.693453 C417.030161,157.249678 417.030161,157.249678 418.121232,158.307596 C422.782625,162.018277 426.411696,166.760869 430.688696,170.852434 C432.509946,172.594936 431.127643,173.52785 430.056714,174.614292 C422.233732,182.550772 413.292821,188.906667 403.206286,193.67191 C387.753357,200.973303 371.420018,203.293843 354.504214,202.444824 C353.095054,202.374352 351.680857,202.397004 350.270018,202.377708 L350.339679,202.390292 C341.899821,200.792929 333.397857,199.558831 325.292875,196.442966 C294.898143,184.75973 276.679768,162.732225 270.949964,130.957783 C265.933554,103.144869 271.0255,77.2539925 289.088607,54.7038202 C290.578339,52.8438652 292.345036,51.2062322 293.982482,49.4654082 C296.352625,48.7254532 298.834393,48.3722547 301.113054,47.401588 C301.383304,47.4234007 301.551161,47.5844794 301.589768,47.8747566 C301.6225,47.6415281 301.552839,47.418367 301.374911,47.1842996 C301.86925,45.695161 299.484,45.2211536 300.1655,43.6875506 L300.20075,43.6590262 C301.321196,42.8309813 302.763929,42.4014382 303.967464,42.3964045 C306.915036,42.3854981 305.30025,40.6916554 305.280107,39.5590712 C317.066196,30.4908464 330.479661,25.2213933 345.058054,22.8899476 C363.122,20.0014382 380.808268,21.4880599 397.9255,28.2047041 C404.525643,30.7945468 410.701946,34.1084045 415.665482,39.3275206 C416.473714,39.941633 417.216482,40.6429963 418.112839,41.1396554 L418.163196,41.1941873 C418.717964,42.2361648 419.358339,43.1934082 420.530821,43.6380524 C422.00125,45.678382 423.412089,47.7682097 424.953018,49.7548464 C431.861179,58.6653483 430.148196,74.47203 421.490964,81.3875056 C415.450625,86.2123146 405.336393,86.6494082 398.309893,82.3908914 C391.481464,78.2515056 388.224196,70.301603 390.451661,61.255191 C391.332071,57.6762247 390.420607,56.1359101 387.392464,54.8019775 C356.203768,41.0641498 311.094679,52.8430262 301.813857,97.7604794 C298.141143,115.539536 301.226357,132.293393 310.367857,147.954097 C311.056911,149.204135 310.742179,151.116105 312.717018,151.520479 C313.334732,152.348524 313.952446,153.174052 314.571839,154.000419 C314.872304,154.784 315.216411,155.528989 316.138786,155.761378" id="Fill-9" fill="#FEFEFE" sketch:type="MSShapeGroup"></path>
      <path d="M301.815536,47.8646891 C299.273339,48.7338427 296.976214,50.8010187 293.982482,49.4654082 C295.729875,47.2044345 297.689607,45.1708165 300.1655,43.6875506 C300.730339,45.0734981 303.101321,45.747176 301.815536,47.8646891" id="Fill-10" fill="#FEFEFE" sketch:type="MSShapeGroup"></path>
      <path d="M305.280107,39.5590712 C306.081625,40.6161498 308.354411,40.7839401 307.853357,42.4198951 C307.465607,43.680839 305.769411,43.0835056 304.522232,43.1212584 C303.119786,43.1657228 301.783643,44.3796854 300.20075,43.6590262 C301.568786,41.8905169 303.318696,40.5943371 305.280107,39.5590712" id="Fill-11" fill="#FEFEFE" sketch:type="MSShapeGroup"></path>
      <path d="M413.929,154.049079 C412.983964,154.985348 412.017107,155.900644 411.096411,156.862082 C409.302857,158.737978 408.738018,157.291625 408.173179,155.807521 C409.988554,154.884674 410.478696,149.625288 413.929,154.049079" id="Fill-12" fill="#FEFEFE" sketch:type="MSShapeGroup"></path>
      <path d="M312.717018,151.520479 C308.486179,152.599371 310.103482,149.83167 310.367857,147.954097 C311.451375,148.944899 312.406482,150.020434 312.717018,151.520479" id="Fill-13" fill="#FEFEFE" sketch:type="MSShapeGroup"></path>
      <path d="M420.530821,43.6380524 C417.861893,44.6422772 417.481696,43.4333483 418.163196,41.1941873 C419.234964,41.7361498 420.023893,42.5507715 420.530821,43.6380524" id="Fill-14" fill="#FBF9F8" sketch:type="MSShapeGroup"></path>
      <path d="M418.112839,41.1396554 C416.171571,42.0549513 416.303339,40.1723446 415.665482,39.3275206 C416.931125,39.3241648 417.589125,40.1404644 418.112839,41.1396554" id="Fill-15" fill="#FEFEFE" sketch:type="MSShapeGroup"></path>
      <path d="M316.138786,155.761378 C313.829071,156.763086 313.907125,155.643086 314.571839,154.000419 C315.453089,154.776449 315.453089,154.776449 316.138786,155.761378" id="Fill-16" fill="#FEFEFE" sketch:type="MSShapeGroup"></path>
      <path d="M414.428375,42.1623371 C414.049018,42.7009438 413.500125,42.7739326 412.986482,42.5155356 C412.442625,42.2411985 412.236161,41.6547715 412.535786,41.1312659 C412.646571,40.9383071 413.260089,40.8829363 413.568107,40.9878052 C414.066643,41.1572734 414.638196,41.4131536 414.428375,42.1623371" id="Fill-17" fill="#FBF9F8" sketch:type="MSShapeGroup"></path>
      <path d="M301.815536,47.8646891 C302.608661,48.4637004 302.886464,49.1617079 302.130268,49.9629064 C302.036268,50.0619026 301.643482,49.8781723 301.389179,49.8261573 C301.531857,49.1717753 301.672857,48.5182322 301.815536,47.8646891" id="Fill-18" fill="#FBFAF9" sketch:type="MSShapeGroup"></path>
      <path d="M701.057036,206.944959 C701.057036,215.748075 693.916393,222.885034 685.110607,222.885034 L493.8055,222.885034 C484.998036,222.885034 477.859071,215.748075 477.859071,206.944959 L477.859071,15.6573483 C477.859071,6.85423221 484.998036,-0.282726592 493.8055,-0.282726592 L685.110607,-0.282726592 C693.916393,-0.282726592 701.057036,6.85423221 701.057036,15.6573483 L701.057036,206.944959" id="Fill-19" fill="#ECC204" sketch:type="MSShapeGroup"></path>
      <path d="M667.931268,71.1246142 C666.140232,73.9116105 665.452018,77.2833558 662.694125,79.5904719 C656.392768,84.8632809 646.562214,85.6317603 638.818964,81.1660225 C632.071946,77.2749663 628.496589,69.0574382 630.834,60.548794 C632.012357,56.2625918 630.479821,54.6996255 627.088268,53.3078052 C595.526089,40.355236 550.545411,51.7255431 542.171018,97.370367 C537.955286,120.35176 542.735018,141.4237 559.800214,158.389813 C575.753357,174.249348 595.400196,176.80815 616.542643,172.725813 C623.954375,171.295401 630.928839,168.633408 637.513036,164.90427 C639.556696,163.748195 640.548732,162.380704 640.500054,159.899925 C640.346464,152.117813 640.326321,144.328989 640.482429,136.548554 C640.536143,133.811056 639.802607,132.902472 636.933089,132.940225 C624.90025,133.100464 612.861536,132.871431 600.830375,133.092914 C597.386786,133.155835 596.508054,132.113019 596.655768,128.810906 C596.921821,122.877843 596.822786,116.922127 596.681786,110.981513 C596.625554,108.587985 597.000714,107.452045 599.841696,107.466307 C622.071018,107.579566 644.302018,107.552719 666.531339,107.488959 C668.816714,107.482247 669.760911,108.018337 669.754196,110.538547 C669.690411,138.844764 669.715589,167.152659 669.78525,195.459715 C669.790286,197.679581 669.006393,198.436315 666.837679,198.412824 C659.335304,198.332285 651.829571,198.310472 644.326357,198.410307 C641.986429,198.441348 640.986839,197.77606 641.155536,195.28018 C641.354446,192.340494 641.201696,189.377318 641.201696,186.621363 C640.369964,185.974532 639.905839,186.340315 639.462696,186.673378 C602.115321,214.676734 545.154679,202.194816 521.130964,158.500554 C501.594071,122.965933 507.129161,76.1809738 534.536036,47.6348165 C538.056,43.9677603 541.988054,40.767161 546.181125,37.891236 C547.226875,37.5749513 548.186179,37.1303071 548.788786,36.149573 C560.353304,27.7164345 573.532607,23.260764 587.509232,21.4293333 C606.904286,18.8889888 625.839411,20.7783071 643.691857,29.4790712 C648.780446,31.9590112 653.584518,34.9104419 657.564411,39.0288539 C658.370964,40.6698427 659.070089,42.4064719 661.051643,43.0239401 C661.592982,43.6330187 662.135161,44.2412584 662.675661,44.8503371 C663.376464,45.5693184 663.332821,46.8025768 664.364304,47.2933633 C668.486875,51.5753708 668.303071,57.2693333 669.376518,62.5522097 C668.521286,63.2837753 667.003018,63.7602996 668.930857,65.1655431 C669.455411,65.5472659 669.093679,67.0464719 668.742857,67.9978427 C668.885536,68.1949963 668.858679,68.3686592 668.665643,68.5163146 C667.95225,69.2537528 667.774321,70.1413633 667.931268,71.1246142" id="Fill-20" fill="#FEFEFE" sketch:type="MSShapeGroup"></path>
      <path d="M668.742857,67.9978427 C668.663964,67.0422772 668.583393,66.0875506 668.503661,65.1126891 C667.241375,65.3467566 668.260268,67.0850637 666.031964,67.3082247 C667.336214,65.4356854 666.02525,62.7929888 669.376518,62.5522097 C669.613196,64.4197154 669.838964,66.2855431 668.742857,67.9978427" id="Fill-21" fill="#FCFBF4" sketch:type="MSShapeGroup"></path>
      <path d="M661.051643,43.0239401 C657.665125,43.6313408 657.039857,41.8317903 657.564411,39.0288539 C659.051625,40.0775431 660.613536,41.0599551 661.051643,43.0239401" id="Fill-22" fill="#FBFAF2" sketch:type="MSShapeGroup"></path>
      <path d="M664.364304,47.2933633 C661.440232,48.1096629 663.187625,45.7010337 662.675661,44.8503371 C663.750786,45.3117603 664.383607,46.0768839 664.364304,47.2933633" id="Fill-23" fill="#FBFAF2" sketch:type="MSShapeGroup"></path>
      <path d="M548.788786,36.149573 C548.746821,37.9675805 548.100571,38.8803596 546.181125,37.891236 C546.828214,36.9792959 547.665821,36.3517603 548.788786,36.149573" id="Fill-24" fill="#FBFAF1" sketch:type="MSShapeGroup"></path>
      <path d="M667.931268,71.1246142 C666.157857,69.6874906 667.701304,69.1832809 668.665643,68.5163146 C668.785661,69.4878202 668.746214,70.4157004 667.931268,71.1246142" id="Fill-25" fill="#FCFBF4" sketch:type="MSShapeGroup"></path>
      <path d="M655.335268,79.1315655 C656.650429,78.6483296 657.648339,78.4461423 657.9295,79.3035506 C658.222411,80.1961948 657.351232,79.7582622 656.941661,79.6760449 C656.573214,79.6022172 656.224071,79.4377828 655.335268,79.1315655" id="Fill-26" fill="#FCFEEF" sketch:type="MSShapeGroup"></path>
    </g>
  </g>
</svg>
